<svg width="38" height="38" viewBox="0 0 38 38" fill="none" xmlns="http://www.w3.org/2000/svg">
<g clip-path="url(#clip0)">
<path d="M36.6693 3.97116L33.0973 3.72861V2.83672C33.0973 2.43282 32.7699 2.10535 32.3659 2.10535H28.7636C28.3597 2.10535 28.0322 2.43282 28.0322 2.83672V3.45692C28.6755 3.50025 29.316 3.7102 29.8864 4.10106C31.5855 5.26538 32.019 7.58658 30.8546 9.28569L30.2159 10.2177H32.3658C32.7697 10.2177 33.0972 9.89021 33.0972 9.48632V8.59443L36.6692 8.35187C37.2073 8.31531 37.6251 7.86817 37.6251 7.32885V4.9941C37.6252 4.45486 37.2074 4.00772 36.6693 3.97116Z" fill="#1B25B9"/>
<path d="M19.3477 8.09051C21.5528 8.68546 23.8049 7.3702 24.3935 5.18896C24.9857 2.99436 23.6866 0.735212 21.492 0.143067C19.2974 -0.449077 17.0382 0.850009 16.4461 3.04462C15.854 5.23931 17.153 7.49837 19.3477 8.09051Z" fill="#1B25B9"/>
<path d="M28.8324 5.63947C27.9828 5.05739 26.8222 5.27412 26.2401 6.12358L22.5938 11.4446L16.548 11.3585L20.2197 10.4425C15.591 9.19358 15.9017 9.27569 15.7966 9.25308C15.7671 7.31307 14.1866 5.38297 11.8148 4.61785C8.97526 3.70169 6.07867 4.8023 5.34507 7.07597C4.89462 8.47211 5.36562 9.98544 6.45293 11.1582C4.39021 11.5193 2.48462 12.9519 1.37064 15.0563C3.26212 15.7984 4.85806 15.8462 6.12562 15.1958C7.27509 14.6061 7.99994 13.5328 8.4432 12.5746C8.68509 12.0518 8.84305 11.5636 8.94044 11.2069C7.46771 10.4252 6.82984 8.93716 7.23366 7.68528C7.73279 6.13828 9.5854 5.40682 11.374 5.9837C13.1677 6.56247 14.2289 8.26727 13.7395 9.78415C13.3044 11.1326 11.8824 11.813 10.4173 11.659C10.3119 12.0378 10.1529 12.5232 9.92129 13.0492C9.37611 14.2873 8.42876 15.7492 6.83026 16.5693C4.9141 17.5523 2.7714 17.269 0.775526 16.4803C-0.488816 20.4767 1.34308 24.5956 4.82266 25.6404C6.20403 26.0552 7.63533 25.9222 8.93111 25.3592C8.95612 25.4984 8.81862 24.9539 11.0356 33.5095L4.6784 33.4763C4.67444 33.4762 4.67039 33.4762 4.66643 33.4762C3.43609 33.4762 2.43551 34.4703 2.42907 35.7023C2.42255 36.938 3.41917 37.9451 4.65504 37.9516L13.9193 38.0001C13.9232 38.0002 13.9271 38.0002 13.931 38.0002C14.6211 38.0001 15.273 37.6817 15.6971 37.1366C16.1235 36.5885 16.2714 35.8734 16.0972 35.2012L13.9818 27.0374L20.386 27.9761L21.6558 36.1074C21.8466 37.3296 22.9924 38.1638 24.212 37.973C25.433 37.7822 26.2683 36.6379 26.0776 35.4168L24.5533 25.6558C24.4021 24.6868 23.6373 23.9292 22.667 23.787L20.1418 23.4169L21.9752 16.6217L16.4949 15.0875L23.5404 15.1879C23.5493 15.188 23.5582 15.1881 23.567 15.1881C24.1815 15.1881 24.7573 14.8852 25.1052 14.3775L29.3166 8.23178C29.8986 7.38223 29.6819 6.22155 28.8324 5.63947Z" fill="#44A64B"/>
<path d="M12.2705 9.3102C12.4947 8.6153 11.8672 7.76467 10.9002 7.45271C9.88688 7.12565 8.91659 7.49604 8.70276 8.15916C8.47663 8.85983 9.10772 9.70535 10.073 10.0166C11.0878 10.344 12.0568 9.97266 12.2705 9.3102Z" fill="#1B25B9"/>
</g>
<defs>
<clipPath id="clip0">
<rect width="38" height="38" fill="white"/>
</clipPath>
</defs>
</svg>
