<svg width="40" height="40" viewBox="0 0 40 40" fill="none" xmlns="http://www.w3.org/2000/svg">
<g clip-path="url(#clip0)">
<path d="M7.2419 15.3967L7.58606 15.5957V17.7799L6.01783 18.1718L9.65502 20.2937L9.62876 21.5689L9.57286 21.7642L11.724 21.2854V20.7745C11.724 19.8475 12.0984 18.9985 12.7117 18.3712L10.3454 17.7799L10.3427 15.5974L10.6875 15.3981C11.7523 14.7815 12.4136 13.6379 12.4136 12.4138V11.2083C12.4136 9.2676 10.9145 7.64348 9.07144 7.58825C8.13765 7.55188 7.23921 7.90479 6.56403 8.55942C5.88886 9.21439 5.51709 10.094 5.51709 11.0345V12.4138C5.51709 13.6379 6.17779 14.7815 7.2419 15.3967Z" fill="#1B25B9"/>
<path d="M12.3815 7.69531C14.0023 5.08621 16.8828 3.44828 20 3.44828C23.0951 3.44828 25.9675 5.07105 27.593 7.65457C27.6206 7.62695 27.6448 7.59665 27.6731 7.56903C28.1028 7.15181 28.5965 6.83021 29.1289 6.60123L29.9111 4.76967L27.7105 2.56836L25.7712 3.83048L25.4001 3.60284C24.4703 3.03307 23.4655 2.61584 22.4138 2.36429L21.9889 2.26192L21.5097 0H18.4897L18.0112 2.26192L17.5869 2.36328C16.5353 2.61517 15.5304 3.03239 14.6007 3.60217L14.2296 3.82981L12.2902 2.56769L10.0869 4.77101L10.8608 6.61571C11.4319 6.87298 11.9478 7.24138 12.3815 7.69531Z" fill="#1B25B9"/>
<path d="M0 15.8621V28.4681L2.95999 29.4551L5.46269 19.4447L0 15.8621Z" fill="#44A64B"/>
<path d="M28.2758 16.3709C26.9904 15.4732 26.2068 13.9925 26.2068 12.4138V11.0345C26.2068 10.2745 26.3853 9.54544 26.7136 8.88711C25.4087 6.41169 22.8131 4.82764 19.9999 4.82764C17.1598 4.82764 14.5531 6.43324 13.2579 8.94267C13.5977 9.62626 13.793 10.3967 13.793 11.2083V12.4138C13.793 13.9925 13.0087 15.4745 11.7234 16.3716V16.702L14.4827 17.3926L17.2413 16.702V16.3709C15.9559 15.4732 15.1723 13.9925 15.1723 12.4138V11.0345C15.1723 9.71718 15.6929 8.48705 16.6385 7.56976C17.5834 6.65246 18.828 6.17125 20.1481 6.20897C22.7282 6.28709 24.8275 8.52915 24.8275 11.2083V12.4138C24.8275 13.9925 24.0432 15.4745 22.7579 16.3716V16.702L25.5172 17.3926L28.2758 16.702V16.3709Z" fill="#1B25B9"/>
<path d="M8.27597 21.0856L6.70303 20.1683L4.27173 29.8925L5.62915 30.3448H5.68707L8.27597 21.2826V21.0856Z" fill="#44A64B"/>
<path d="M14.6704 18.7669C13.7484 18.9979 13.1035 19.8236 13.1035 20.7745V20.9786L13.4989 20.8911C14.9553 20.5685 16.4952 20.6365 17.918 21.0924L21.0399 22.0902C21.3854 22.1033 21.7296 22.1414 22.063 22.2367L26.3036 23.4483H26.7262L26.8966 23.3587V20.7745C26.8966 19.8236 26.2517 18.9979 25.3297 18.7669L21.3801 17.7799L21.3774 15.5974L21.7222 15.3981C22.787 14.7815 23.4483 13.6379 23.4483 12.4138V11.2083C23.4483 9.2676 21.9492 7.64348 20.1061 7.58825C19.1754 7.55188 18.2739 7.90479 17.5987 8.55943C16.9236 9.2144 16.5518 10.094 16.5518 11.0345V12.4138C16.5518 13.6379 17.2125 14.7815 18.2766 15.3967L18.6208 15.5957V17.7799L14.6704 18.7669Z" fill="#1B25B9"/>
<path d="M27.5861 11.0345V12.4138C27.5861 13.6379 28.2468 14.7815 29.3109 15.3967L29.6551 15.5957V17.7799L27.2881 18.3712C27.9006 18.9985 28.2758 19.8468 28.2758 20.7745V22.6324L35.8599 18.6406L32.4144 17.7799L32.4117 15.5974L32.7565 15.3981C33.8213 14.7815 34.4827 13.6379 34.4827 12.4138V11.2083C34.4827 9.2676 32.9835 7.64348 31.1405 7.58825C30.2046 7.55188 29.3089 7.90479 28.633 8.55943C27.9579 9.2144 27.5861 10.094 27.5861 11.0345Z" fill="#1B25B9"/>
<path d="M21.5132 27.2559C21.0676 26.8551 20.3753 26.7868 19.8594 27.0966L17.291 28.6365C16.9341 28.8517 16.5222 28.9655 16.1037 28.9655C14.8298 28.9655 13.7933 27.929 13.7933 26.6551V26.5187C13.7933 25.6385 14.2822 24.8468 15.0705 24.4524L18.5148 22.7303L17.4988 22.4054C16.3071 22.0242 15.0193 21.9649 13.7986 22.238L9.1428 23.2732L7.28564 29.773L9.40445 31.0442C9.46506 30.9628 9.525 30.8806 9.5974 30.8082L10.8097 29.5959C11.2091 29.1952 11.7637 28.9655 12.3304 28.9655C13.4912 28.9655 14.4348 29.8909 14.4752 31.0422C15.6002 31.082 16.5044 31.9861 16.5441 33.1112C17.6692 33.1509 18.5734 34.0551 18.6131 35.1802C19.429 35.2091 20.1258 35.6923 20.4649 36.3854L22.0041 37.6684C22.2065 37.8371 22.4645 37.931 22.7291 37.931C23.1258 37.931 23.4484 37.6084 23.4484 37.2117C23.4484 36.9972 23.3538 36.7959 23.1898 36.6591L19.558 33.6331L20.4416 32.5731L24.1876 35.6944C24.3166 35.8028 24.4802 35.8621 24.6476 35.8621H24.7981C25.1948 35.8621 25.5174 35.5395 25.5174 35.1428C25.5174 34.9283 25.4228 34.7269 25.2588 34.5902L21.627 31.5642L22.5106 30.5041L26.2505 33.6207C26.3828 33.7318 26.5526 33.7931 26.725 33.7931H26.8442C27.254 33.7931 27.5864 33.4607 27.5864 33.0516C27.5864 32.8415 27.4968 32.6408 27.3409 32.5L21.5132 27.2559Z" fill="#44A64B"/>
<path d="M27.0669 24.8276L26.0179 24.8013L21.684 23.5635C20.9745 23.3594 20.1929 23.4338 19.5346 23.7628L15.6876 25.6863C15.3697 25.8456 15.1724 26.1642 15.1724 26.5187V26.6551C15.1724 27.1683 15.5896 27.5862 16.1035 27.5862C16.2718 27.5862 16.4365 27.5408 16.5806 27.4546L19.1497 25.914C19.582 25.654 20.075 25.5173 20.5785 25.5173C21.2661 25.5173 21.9261 25.7705 22.4366 26.2305L28.2627 31.4746C28.3041 31.5117 28.3435 31.5497 28.3812 31.5898L40 25.7806V18.0206L27.0669 24.8276Z" fill="#44A64B"/>
<path d="M20.4938 38.2062C20.3877 38.4429 20.2443 38.6621 20.0594 38.847L19.5415 39.3649L20.0574 39.8199C20.1884 39.936 20.3574 40 20.5325 40H20.6602C21.0569 40 21.3795 39.6774 21.3795 39.2807C21.3795 39.0662 21.2848 38.8649 21.1208 38.7281L20.4938 38.2062Z" fill="#44A64B"/>
<path d="M18.5372 36.5518C18.3338 36.5518 18.1345 36.6339 17.9903 36.7781L16.7781 37.9903C16.6339 38.1345 16.5518 38.3338 16.5518 38.5372C16.5518 38.9635 16.8986 39.3104 17.3249 39.3104C17.5283 39.3104 17.7277 39.2282 17.8718 39.0841L19.0841 37.8718C19.2282 37.7277 19.3104 37.5283 19.3104 37.3249C19.3104 36.8986 18.9635 36.5518 18.5372 36.5518Z" fill="#44A64B"/>
<path d="M15.1724 33.187C15.1724 32.7607 14.8256 32.4138 14.3993 32.4138C14.1959 32.4138 13.9965 32.496 13.8524 32.6401L12.6401 33.8524C12.496 33.9965 12.4138 34.1959 12.4138 34.3993C12.4138 34.8256 12.7607 35.1724 13.187 35.1724C13.3904 35.1724 13.5897 35.0903 13.7339 34.9461L14.9461 33.7339C15.0903 33.5897 15.1724 33.3904 15.1724 33.187Z" fill="#44A64B"/>
<path d="M17.2415 35.256C17.2415 34.8296 16.8947 34.4828 16.4684 34.4828C16.265 34.4828 16.0656 34.565 15.9215 34.7091L14.7092 35.9214C14.5651 36.0655 14.4829 36.2648 14.4829 36.4682C14.4829 36.8946 14.8298 37.2414 15.2561 37.2414C15.4595 37.2414 15.6588 37.1592 15.803 37.0151L17.0152 35.8028C17.1594 35.6587 17.2415 35.4594 17.2415 35.256Z" fill="#44A64B"/>
<path d="M13.1033 31.118C13.1033 30.6917 12.7565 30.3448 12.3302 30.3448C12.1268 30.3448 11.9274 30.427 11.7833 30.5711L10.571 31.7834C10.4269 31.9276 10.3447 32.1269 10.3447 32.3303C10.3447 32.7566 10.6916 33.1035 11.1179 33.1035C11.3213 33.1035 11.5206 33.0213 11.6648 32.8772L12.8771 31.6649C13.0212 31.5208 13.1033 31.3214 13.1033 31.118Z" fill="#44A64B"/>
</g>
<defs>
<clipPath id="clip0">
<rect width="40" height="40" fill="white"/>
</clipPath>
</defs>
</svg>
