<svg width="51" height="30" viewBox="0 0 51 30" fill="none" xmlns="http://www.w3.org/2000/svg">
<path d="M12.325 2.33754C10.6249 0.6375 3.39997 0.212567 1.06243 0C0.849967 0 0.637401 3.32483e-07 0.424934 0.212467C0.212467 0.425034 0 0.850067 0 1.06253V20.1876C0 20.8251 0.425033 21.2501 1.06253 21.2501H7.43754C7.86257 21.2501 8.28751 21.0376 8.50007 20.6126C8.50007 19.9751 12.3251 8.71254 12.7501 3.1876C12.75 2.97504 12.75 2.5501 12.325 2.33754Z" fill="#1B25B9"/>
<path d="M35.0623 7.43762C32.9373 6.80012 31.0248 5.95016 29.3248 5.31265C25.4998 3.61262 23.7997 4.46269 20.3998 7.86266C18.9123 9.35013 17.8498 11.4752 18.0622 12.3252C18.0622 12.5376 18.0622 12.5376 18.4873 12.7502C19.5498 13.1752 21.0373 13.3877 22.5247 11.0502C22.7372 10.8377 22.9498 10.6251 23.3747 10.6251C24.0122 10.6251 24.2247 10.4127 24.8622 10.2001C25.2872 9.98763 25.7121 9.77506 26.3496 9.56259C26.5621 9.56259 26.5621 9.56259 26.7747 9.56259C26.9871 9.56259 27.4122 9.77506 27.6246 9.77506C28.6873 10.8377 30.5998 12.3252 32.5123 14.0252C35.4873 16.3627 38.4622 18.9127 39.9498 20.8252H40.1623C38.6748 16.5752 36.1248 9.35013 35.0623 7.43762Z" fill="#44A64B"/>
<path d="M49.9376 2.12518C41.65 2.12518 36.9751 4.25015 36.7625 4.25015C36.55 4.46262 36.3375 4.67518 36.125 4.88765C36.125 5.10012 36.125 5.52515 36.3375 5.73762C37.6125 7.86259 41.8625 19.5502 42.5 22.5251C42.7125 22.9501 43.1375 23.3751 43.5626 23.3751H49.9376C50.5751 23.3751 51.0001 22.95 51.0001 22.3125V3.18752C51.0001 2.55022 50.5751 2.12518 49.9376 2.12518Z" fill="#1B25B9"/>
<path d="M38.4625 22.9502C37.6125 21.0377 34 18.2752 30.8125 15.7252C29.1125 14.2377 27.4125 12.9627 26.1375 11.9001C25.925 12.1126 25.5 12.1126 25.5 12.3252C24.8625 12.5376 24.65 12.7502 23.8 12.7502C22.1 14.8752 19.975 15.7251 17.6375 14.8752C16.575 14.6627 15.9375 13.8126 15.725 12.9627C15.3 10.8377 17.2125 7.86265 18.7001 6.37518H14.45C13.6001 10.6252 12.1125 16.1502 11.05 19.1252C11.9 19.9752 12.7501 21.0377 13.3876 21.4627C17.4251 24.8627 22.1001 28.2628 22.9501 28.9003C23.5876 29.3253 24.8626 29.7502 25.5001 29.7502C25.7126 29.7502 25.9251 29.7502 26.1376 29.7502L22.7375 26.3502C22.3125 25.9251 22.3125 25.2876 22.7375 24.8627C23.1626 24.4378 23.8001 24.4377 24.225 24.8627L28.475 29.1127C28.9001 29.5378 29.325 29.3252 29.75 29.3252C30.3875 29.1127 30.6 28.6877 30.8126 28.0502L25.925 23.1627C25.5 22.7376 25.5 22.1001 25.925 21.6752C26.3501 21.2503 26.9876 21.2502 27.4125 21.6752L32.725 26.9877C32.9374 27.2001 33.7875 27.2001 34.425 26.9877C34.6375 26.7752 35.0625 26.5626 35.275 26.1377L29.325 20.1876C28.9 19.7626 28.9 19.1251 29.325 18.7002C29.75 18.2752 30.3875 18.2751 30.8125 18.7002L36.975 24.8627C37.4 25.0752 37.825 24.8627 38.25 24.6502C38.4625 24.4377 38.8875 23.8002 38.4625 22.9502Z" fill="#44A64B"/>
</svg>
