<svg width="45" height="41" viewBox="0 0 45 41" fill="none" xmlns="http://www.w3.org/2000/svg">
<path d="M38.2687 22.3141C35.3958 24.4688 31.8886 25.9646 28.0715 26.7027C27.686 29.433 25.3351 31.5404 22.5 31.5404C19.6649 31.5404 17.314 29.433 16.9285 26.7027C13.1114 25.9646 9.60425 24.4688 6.73128 22.3141C2.39054 19.0586 0 14.6946 0 10.0261V33.9763C0 37.5565 2.91278 40.4692 6.49292 40.4692H38.5071C42.0872 40.4692 45 37.5565 45 33.9763V10.0261C45 14.6946 42.6095 19.0586 38.2687 22.3141Z" fill="#1B25B9"/>
<path d="M16.8719 23.9975V21.6027C16.8719 20.8746 17.4622 20.2844 18.1903 20.2844H26.8097C27.5378 20.2844 28.1281 20.8746 28.1281 21.6027V23.9975C36.3482 22.2132 42.3633 16.6257 42.3633 10.0261V8.70776H31.7615V6.08792C31.7615 3.15264 29.3734 0.764648 26.4382 0.764648H18.5619C15.6267 0.764648 13.2386 3.15264 13.2386 6.08792V8.70776H2.63672V10.0261C2.63672 16.6257 8.65178 22.2132 16.8719 23.9975ZM15.8752 6.08792C15.8752 4.60652 17.0805 3.40137 18.5618 3.40137H26.4381C27.9194 3.40137 29.1247 4.60652 29.1247 6.08792V8.70776H15.8752V6.08792H15.8752Z" fill="#44A64B"/>
<path d="M25.4915 22.921H19.5088V25.9124C19.5088 27.5618 20.8508 28.9037 22.5001 28.9037C24.1495 28.9037 25.4915 27.5618 25.4915 25.9124V22.921Z" fill="#44A64B"/>
</svg>
