<svg width="34" height="34" viewBox="0 0 34 34" fill="none" xmlns="http://www.w3.org/2000/svg">
<g clip-path="url(#clip0)">
<path d="M8.50019 0C7.82954 0 7.28589 0.543653 7.28589 1.21431V3.64285H9.71443V1.21431C9.71443 0.543653 9.17078 0 8.50019 0Z" fill="#1B25B9"/>
<path d="M25.5 0C24.8293 0 24.2856 0.543653 24.2856 1.21431V3.64285H26.7142V1.21431C26.7143 0.543653 26.1706 0 25.5 0Z" fill="#1B25B9"/>
<path d="M30.3571 3.64288H26.7143V8.50005C26.7143 9.1707 26.1706 9.71436 25.5 9.71436C24.8293 9.71436 24.2857 9.1707 24.2857 8.50005V3.64288H9.71426V8.50005C9.71426 9.1707 9.1706 9.71436 8.49995 9.71436C7.82929 9.71436 7.28564 9.1707 7.28564 8.50005V3.64288H3.64285C1.63096 3.64288 0 5.27384 0 7.28574V30.3572C0 32.3691 1.63096 34 3.64285 34H30.3571C32.369 34 34 32.3691 34 30.3572V7.28574C34 5.27384 32.369 3.64288 30.3571 3.64288ZM31.5714 30.3572C31.5714 31.0278 31.0277 31.5715 30.3571 31.5715H3.64285C2.9722 31.5715 2.42855 31.0278 2.42855 30.3572V14.5714H31.5714V30.3572Z" fill="#44A64B"/>
<path d="M9.71415 16.9999H7.2856C6.61494 16.9999 6.07129 17.5436 6.07129 18.2143C6.07129 18.8849 6.61494 19.4286 7.2856 19.4286H9.71415C10.3848 19.4286 10.9285 18.8849 10.9285 18.2143C10.9285 17.5436 10.3848 16.9999 9.71415 16.9999Z" fill="#1B25B9"/>
<path d="M18.2141 16.9999H15.7856C15.1149 16.9999 14.5713 17.5436 14.5713 18.2143C14.5713 18.8849 15.1149 19.4286 15.7856 19.4286H18.2141C18.8848 19.4286 19.4284 18.8849 19.4284 18.2143C19.4284 17.5436 18.8848 16.9999 18.2141 16.9999Z" fill="#1B25B9"/>
<path d="M26.7141 16.9999H24.2856C23.6149 16.9999 23.0713 17.5436 23.0713 18.2143C23.0713 18.8849 23.6149 19.4286 24.2856 19.4286H26.7141C27.3848 19.4286 27.9284 18.8849 27.9284 18.2143C27.9284 17.5436 27.3847 16.9999 26.7141 16.9999Z" fill="#1B25B9"/>
<path d="M9.71415 21.8572H7.2856C6.61494 21.8572 6.07129 22.4008 6.07129 23.0715C6.07129 23.7421 6.61494 24.2858 7.2856 24.2858H9.71415C10.3848 24.2858 10.9285 23.7421 10.9285 23.0715C10.9285 22.4008 10.3848 21.8572 9.71415 21.8572Z" fill="#1B25B9"/>
<path d="M18.2141 21.8572H15.7856C15.1149 21.8572 14.5713 22.4008 14.5713 23.0715C14.5713 23.7421 15.1149 24.2858 15.7856 24.2858H18.2141C18.8848 24.2858 19.4284 23.7421 19.4284 23.0715C19.4284 22.4008 18.8848 21.8572 18.2141 21.8572Z" fill="#1B25B9"/>
<path d="M26.7141 21.8572H24.2856C23.6149 21.8572 23.0713 22.4008 23.0713 23.0715C23.0713 23.7421 23.6149 24.2858 24.2856 24.2858H26.7141C27.3848 24.2858 27.9284 23.7421 27.9284 23.0715C27.9284 22.4008 27.3847 21.8572 26.7141 21.8572Z" fill="#1B25B9"/>
<path d="M9.71415 26.7143H7.2856C6.61494 26.7143 6.07129 27.2579 6.07129 27.9286C6.07129 28.5993 6.61494 29.1428 7.2856 29.1428H9.71415C10.3848 29.1428 10.9285 28.5992 10.9285 27.9285C10.9285 27.2579 10.3848 26.7143 9.71415 26.7143Z" fill="#1B25B9"/>
<path d="M18.2141 26.7143H15.7856C15.1149 26.7143 14.5713 27.2579 14.5713 27.9286C14.5713 28.5993 15.1149 29.1429 15.7856 29.1429H18.2141C18.8848 29.1429 19.4284 28.5993 19.4284 27.9286C19.4284 27.2579 18.8848 26.7143 18.2141 26.7143Z" fill="#1B25B9"/>
<path d="M26.7141 26.7143H24.2856C23.6149 26.7143 23.0713 27.2579 23.0713 27.9286C23.0713 28.5993 23.6149 29.1429 24.2856 29.1429H26.7141C27.3848 29.1429 27.9284 28.5993 27.9284 27.9286C27.9284 27.2579 27.3847 26.7143 26.7141 26.7143Z" fill="#1B25B9"/>
</g>
<defs>
<clipPath id="clip0">
<rect width="34" height="34" fill="white"/>
</clipPath>
</defs>
</svg>
