<svg width="47" height="40" viewBox="0 0 47 40" fill="none" xmlns="http://www.w3.org/2000/svg">
<path d="M1.42952 19.5429C0.644142 19.5388 0.00409744 20.1721 0 20.9573C0 20.9636 0 20.9699 0 20.9761V39.789H12.1718V19.5429H1.42952ZM4.57949 34.4865C4.57949 35.0189 4.14782 35.4506 3.61539 35.4506C3.08296 35.4506 2.65129 35.0189 2.65129 34.4865V32.4147C2.65129 31.8823 3.08296 31.4506 3.61539 31.4506C4.14782 31.4506 4.57949 31.8823 4.57949 32.4147V34.4865ZM4.57949 26.4172C4.57949 26.9496 4.14782 27.3813 3.61539 27.3813C3.08296 27.3813 2.65129 26.9496 2.65129 26.4172V24.3453C2.65129 23.8129 3.08296 23.3812 3.61539 23.3812C4.14782 23.3812 4.57949 23.8129 4.57949 24.3453V26.4172ZM9.52052 34.4865C9.52052 35.0189 9.08885 35.4506 8.55642 35.4506C8.02399 35.4506 7.59232 35.0189 7.59232 34.4865V32.4147C7.59232 31.8823 8.02399 31.4506 8.55642 31.4506C9.08885 31.4506 9.52052 31.8823 9.52052 32.4147V34.4865ZM9.52052 26.4172C9.52052 26.9496 9.08885 27.3813 8.55642 27.3813C8.02399 27.3813 7.59232 26.9496 7.59232 26.4172V24.3453C7.59232 23.8129 8.02399 23.3812 8.55642 23.3812C9.08885 23.3812 9.52052 23.8129 9.52052 24.3453V26.4172Z" fill="#1B25B9"/>
<path d="M23.3449 6.10571L14.0999 13.9697V39.7891H18.3178V29.749C18.305 29.25 18.6992 28.8352 19.1983 28.8223C19.2145 28.8219 19.2308 28.8219 19.2471 28.8224H27.5345C28.0232 28.8101 28.4293 29.1962 28.4416 29.6848C28.4421 29.7062 28.442 29.7276 28.4409 29.749V39.7891H32.5383V13.9607L23.3449 6.10571ZM27.5345 23.3993H19.1926C18.6602 23.3993 18.2285 22.9676 18.2285 22.4352C18.2285 21.9028 18.6602 21.4711 19.1926 21.4711H27.5345C28.0669 21.4711 28.4986 21.9028 28.4986 22.4352C28.4986 22.9676 28.0669 23.3993 27.5345 23.3993Z" fill="#44A64B"/>
<path d="M45.5892 19.5428C45.5829 19.5428 45.5766 19.5428 45.5704 19.5428H34.4666V39.789H46.9999V20.9761C47.0062 20.1907 46.3744 19.5491 45.5892 19.5428ZM39.4076 34.4865C39.4076 35.0189 38.9759 35.4506 38.4435 35.4506C37.9111 35.4506 37.4794 35.0189 37.4794 34.4865V32.4147C37.4794 31.8823 37.9111 31.4506 38.4435 31.4506C38.9759 31.4506 39.4076 31.8823 39.4076 32.4147V34.4865ZM39.4076 26.4171C39.4076 26.9496 38.9759 27.3812 38.4435 27.3812C37.9111 27.3812 37.4794 26.9496 37.4794 26.4171V24.3453C37.4794 23.8129 37.9111 23.3812 38.4435 23.3812C38.9759 23.3812 39.4076 23.8129 39.4076 24.3453V26.4171ZM44.2281 34.4865C44.2281 35.0189 43.7964 35.4506 43.264 35.4506C42.7316 35.4506 42.2999 35.0189 42.2999 34.4865V32.4147C42.2999 31.8823 42.7316 31.4506 43.264 31.4506C43.7964 31.4506 44.2281 31.8823 44.2281 32.4147V34.4865ZM44.2281 26.4171C44.2281 26.9496 43.7964 27.3812 43.264 27.3812C42.7316 27.3812 42.2999 26.9496 42.2999 26.4171V24.3453C42.2999 23.8129 42.7316 23.3812 43.264 23.3812C43.7964 23.3812 44.2281 23.8129 44.2281 24.3453V26.4171Z" fill="#1B25B9"/>
<path d="M23.3917 0L9.59497 11.8115L11.3386 13.8403L22.7657 4.10347C23.1266 3.79592 23.6576 3.7964 24.018 4.10479L35.3976 13.8443L37.1812 11.8059L23.3917 0Z" fill="#44A64B"/>
<path d="M26.5128 30.7506H20.2461V39.7891H26.5128V30.7506Z" fill="#44A64B"/>
</svg>
