<svg width="42" height="42" viewBox="0 0 42 42" fill="none" xmlns="http://www.w3.org/2000/svg">
<path d="M40.7695 16.4883H38.0528C37.6506 14.965 37.0448 13.5076 36.2439 12.1365L38.1695 10.2111C38.4002 9.98033 38.5299 9.66738 38.5299 9.34098C38.5299 9.01458 38.4002 8.70171 38.1695 8.47096L33.5291 3.83061C33.0487 3.35016 32.2695 3.35007 31.789 3.83061L29.8634 5.75613C28.4923 4.95526 27.035 4.34946 25.5117 3.94726V1.23047C25.5117 0.550922 24.9608 0 24.2812 0H17.7188C17.0392 0 16.4883 0.550922 16.4883 1.23047V3.94726C14.965 4.34946 13.5077 4.95526 12.1366 5.75613L10.2111 3.83061C9.73063 3.35016 8.9515 3.35007 8.47096 3.83061L3.83061 8.47096C3.59986 8.70171 3.47017 9.01466 3.47017 9.34098C3.47017 9.6673 3.59986 9.98025 3.83061 10.2111L5.75613 12.1365C4.95518 13.5077 4.34946 14.965 3.94718 16.4883H1.23047C0.550922 16.4883 0 17.0392 0 17.7188V24.2812C0 24.9608 0.550922 25.5117 1.23047 25.5117H3.94718C4.34938 27.035 4.95518 28.4923 5.75605 29.8634L3.83053 31.7888C3.59978 32.0196 3.47009 32.3325 3.47009 32.6589C3.47009 32.9853 3.5997 33.2982 3.83053 33.529L8.47087 38.1694C8.70163 38.4001 9.01458 38.5298 9.3409 38.5298C9.66722 38.5298 9.98017 38.4001 10.2109 38.1694L12.1364 36.2439C13.5075 37.0447 14.9648 37.6505 16.4881 38.0527V40.7695C16.4881 41.4491 17.039 42 17.7186 42H24.2811C24.9606 42 25.5116 41.4491 25.5116 40.7695V38.0528C27.0349 37.6506 28.4922 37.0448 29.8632 36.2439L31.7887 38.1695C32.0195 38.4002 32.3325 38.5299 32.6588 38.5299C32.9852 38.5299 33.298 38.4002 33.5288 38.1695L38.1691 33.529C38.3999 33.2983 38.5296 32.9853 38.5296 32.659C38.5296 32.3326 38.3999 32.0197 38.1691 31.7889L36.2436 29.8635C37.0445 28.4924 37.6502 27.0351 38.0525 25.5118H40.7695C41.4491 25.5118 42 24.9609 42 24.2813V17.7188C42 17.0392 41.4491 16.4883 40.7695 16.4883ZM21 32.4844C14.6674 32.4844 9.51562 27.3325 9.51562 21C9.51562 14.6675 14.6675 9.51562 21 9.51562C27.3325 9.51562 32.4844 14.6675 32.4844 21C32.4844 27.3325 27.3326 32.4844 21 32.4844Z" fill="#44A64B"/>
<path d="M25.9219 14.8477H22.2305V17.3086C22.2305 17.9881 21.6795 18.5391 21 18.5391C20.3205 18.5391 19.7695 17.9881 19.7695 17.3086V14.8477H16.0781C15.3986 14.8477 14.8477 15.3986 14.8477 16.0781V25.9219C14.8477 26.6014 15.3986 27.1523 16.0781 27.1523H25.9219C26.6014 27.1523 27.1523 26.6014 27.1523 25.9219V16.0781C27.1523 15.3986 26.6014 14.8477 25.9219 14.8477Z" fill="#1B25B9"/>
</svg>
