<svg width="40" height="40" viewBox="0 0 40 40" fill="none" xmlns="http://www.w3.org/2000/svg">
<g clip-path="url(#clip0)">
<path d="M20 14.1176C23.8984 14.1176 27.0588 10.9573 27.0588 7.05882C27.0588 3.16031 23.8984 0 20 0C16.1015 0 12.9412 3.16031 12.9412 7.05882C12.9412 10.9573 16.1015 14.1176 20 14.1176ZM16.4706 5.88235H18.8235V3.52941H21.1765V5.88235H23.5294V8.23529H21.1765V10.5882H18.8235V8.23529H16.4706V5.88235Z" fill="#44A64B"/>
<path d="M29.1139 9.41174C28.6361 11.2612 27.6076 12.8907 26.2161 14.1176H40V9.41174H29.1139Z" fill="#44A64B"/>
<path d="M10.886 9.41174H0V14.1176H13.7839C12.3924 12.8907 11.3638 11.2612 10.886 9.41174Z" fill="#44A64B"/>
<path d="M23.5293 23.5294H32.9411V40H23.5293V23.5294Z" fill="#1B25B9"/>
<path d="M5.88232 23.5294H15.2941V30.5882H5.88232V23.5294Z" fill="#1B25B9"/>
<path d="M0 16.4706V40H21.1765V21.1765H35.2941V40H40V16.4706H0ZM17.6471 32.9412H3.52941V21.1765H17.6471V32.9412Z" fill="#1B25B9"/>
</g>
<defs>
<clipPath id="clip0">
<rect width="40" height="40" fill="white"/>
</clipPath>
</defs>
</svg>
