<svg width="40" height="40" viewBox="0 0 40 40" fill="none" xmlns="http://www.w3.org/2000/svg">
<path d="M31.6406 23.5938C27.1179 23.5938 23.4375 27.2741 23.4375 31.7969C23.4375 36.3196 27.1179 40 31.6406 40C36.1634 40 40 36.3196 40 31.7969C40 27.2741 36.1634 23.5938 31.6406 23.5938ZM33.9844 32.9688H31.6406C30.9929 32.9688 30.4688 32.4446 30.4688 31.7969V29.4531C30.4688 28.8054 30.9929 28.2812 31.6406 28.2812C32.2884 28.2812 32.8125 28.8054 32.8125 29.4531V30.625H33.9844C34.6321 30.625 35.1562 31.1491 35.1562 31.7969C35.1562 32.4446 34.6321 32.9688 33.9844 32.9688Z" fill="#1B25B9"/>
<path d="M4.6875 29.4531H2.34375C1.0493 29.4531 0 30.5024 0 31.7969C0 33.0912 1.0493 34.1406 2.34375 34.1406H4.6875C5.98195 34.1406 7.03125 33.0912 7.03125 31.7969C7.03125 30.5024 5.98195 29.4531 4.6875 29.4531Z" fill="#1B25B9"/>
<path d="M4.6875 17.7344H2.34375C1.0493 17.7344 0 18.7837 0 20.0781C0 21.3724 1.0493 22.4219 2.34375 22.4219H4.6875C5.98195 22.4219 7.03125 21.3724 7.03125 20.0781C7.03125 18.7837 5.98195 17.7344 4.6875 17.7344Z" fill="#1B25B9"/>
<path d="M4.6875 5.85938H2.34375C1.0493 5.85938 0 6.90867 0 8.20312C0 9.49742 1.0493 10.5469 2.34375 10.5469H4.6875C5.98195 10.5469 7.03125 9.49742 7.03125 8.20312C7.03125 6.90867 5.98195 5.85938 4.6875 5.85938Z" fill="#1B25B9"/>
<path d="M33.9844 0H8.20312C6.26453 0 4.6875 1.57703 4.6875 3.51562C7.27273 3.51562 9.375 5.61789 9.375 8.20312C9.375 10.7884 7.27273 12.8906 4.6875 12.8906V15.3906C7.27273 15.3906 9.375 17.4929 9.375 20.0781C9.375 22.6634 7.27273 24.7656 4.6875 24.7656V27.1094C7.27273 27.1094 9.375 29.2116 9.375 31.7969C9.375 34.3821 7.27273 36.4844 4.6875 36.4844C4.6875 38.423 6.26453 40 8.20312 40H25.0933C22.6755 38.0656 21.0938 35.1271 21.0938 31.7969C21.0938 25.981 25.8248 21.25 31.6406 21.25C33.808 21.25 35.9788 21.91 37.6562 23.0354V3.51562C37.6562 1.57703 35.923 0 33.9844 0ZM20.7505 25.5941L16.0629 30.2816C15.834 30.5105 15.5341 30.625 15.2344 30.625C14.9346 30.625 14.6347 30.5105 14.4059 30.2816L11.7325 27.6083C11.2748 27.1505 11.2748 26.4089 11.7325 25.9512C12.1902 25.4934 12.9319 25.4934 13.3896 25.9512L15.2344 27.796L19.0934 23.937C19.5511 23.4793 20.2927 23.4793 20.7505 23.937C21.2082 24.3948 21.2082 25.1364 20.7505 25.5941ZM20.7505 16.2191L16.063 20.9066C15.8341 21.1355 15.5342 21.25 15.2345 21.25C14.9347 21.25 14.6348 21.1355 14.4059 20.9066L11.7326 18.2333C11.2747 17.7755 11.2747 17.034 11.7325 16.5763C12.1902 16.1185 12.9319 16.1185 13.3896 16.5763L15.2344 18.421L19.0934 14.562C19.5511 14.1043 20.2927 14.1043 20.7505 14.562C21.2082 15.0198 21.2082 15.7614 20.7505 16.2191ZM20.7505 6.68789L16.063 11.3754C15.8341 11.6043 15.5342 11.7188 15.2345 11.7188C14.9347 11.7188 14.6348 11.6043 14.4059 11.3754L11.7326 8.70203C11.2747 8.2443 11.2747 7.50273 11.7325 7.045C12.1902 6.58727 12.9319 6.58727 13.3896 7.045L15.2344 8.88977L19.0934 5.03078C19.5511 4.57305 20.2927 4.57305 20.7505 5.03078C21.2082 5.48852 21.2082 6.23016 20.7505 6.68789ZM31.6406 18.9062H24.6094C23.9616 18.9062 23.4375 18.3821 23.4375 17.7344C23.4375 17.0866 23.9616 16.5625 24.6094 16.5625H31.6406C32.2884 16.5625 32.8125 17.0866 32.8125 17.7344C32.8125 18.3821 32.2884 18.9062 31.6406 18.9062ZM31.6406 9.375H24.6094C23.9616 9.375 23.4375 8.85086 23.4375 8.20312C23.4375 7.55539 23.9616 7.03125 24.6094 7.03125H31.6406C32.2884 7.03125 32.8125 7.55539 32.8125 8.20312C32.8125 8.85086 32.2884 9.375 31.6406 9.375Z" fill="#44A64B"/>
</svg>
