<svg width="41" height="40" viewBox="0 0 41 40" fill="none" xmlns="http://www.w3.org/2000/svg">
<path d="M38.8307 37.6561H35.3148V18.7098L35.3423 18.7294C35.8621 19.0944 36.5738 18.9799 36.955 18.4751L39.768 14.7258C40.1614 14.2027 40.0497 13.4504 39.5095 13.0665L22.1105 0.701129C20.8699 -0.230635 19.1361 -0.230635 17.9159 0.682817L0.493197 13.0665C-0.046695 13.4504 -0.158397 14.2024 0.234696 14.7258L3.04769 18.4751C3.42766 18.9799 4.14304 19.0944 4.66034 18.7294L4.68781 18.7098V37.6561H1.17195C0.524327 37.6561 0 38.1801 0 38.828C0 39.4757 0.524327 40 1.17195 40H38.8307C39.4783 40 40.0027 39.4757 40.0027 38.828C40.0027 38.1801 39.4783 37.6561 38.8307 37.6561ZM29.3769 30.5462H28.205V34.1402C28.205 36.0788 26.6277 37.6561 24.6891 37.6561C23.7855 37.6561 22.9687 37.3039 22.3452 36.7414C21.7217 37.3039 20.905 37.6561 20.0013 37.6561C19.0976 37.6561 18.2809 37.3039 17.6574 36.7414C17.0339 37.3039 16.2172 37.6561 15.3135 37.6561C13.3749 37.6561 11.7977 36.0788 11.7977 34.1402V30.5462H10.6257C9.97808 30.5462 9.45375 30.0219 9.45375 29.3743V22.3426C9.45375 20.1739 10.6513 18.2984 12.4071 17.2852C12.0232 16.7218 11.7977 16.0424 11.7977 15.3109C11.7977 13.372 13.3749 11.795 15.3135 11.795C17.2521 11.795 18.8294 13.372 18.8294 15.3109C18.8294 16.0357 18.6084 16.7096 18.2309 17.2699C18.9029 17.6563 19.4633 18.2044 19.9412 18.8328C19.9617 18.8325 19.9806 18.8264 20.0013 18.8264C20.5583 18.8264 21.0784 18.9686 21.5468 19.2003C21.3155 18.7318 21.1733 18.2118 21.1733 17.6545C21.1733 15.7159 22.7505 14.1386 24.6891 14.1386C26.6277 14.1386 28.205 15.7159 28.205 17.6545C28.205 18.3454 27.9978 18.986 27.652 19.5299C29.1654 20.6448 29.4475 22.4796 28.7293 23.9149L28.3436 24.6862L30.4253 28.85C30.8159 29.6288 30.2446 30.5462 29.3769 30.5462Z" fill="#44A64B"/>
<path d="M20.1563 25.8585C19.5096 25.8585 18.9844 26.3838 18.9844 27.0305V34.1403C18.9844 34.7867 19.5096 35.3123 20.1563 35.3123C20.803 35.3123 21.3283 34.7867 21.3283 34.1403V27.0305C21.3283 26.3838 20.803 25.8585 20.1563 25.8585Z" fill="#1B25B9"/>
<path d="M20.1563 21.1707C19.5096 21.1707 18.9844 21.6959 18.9844 22.3426C18.9844 22.989 19.5096 23.5146 20.1563 23.5146C20.803 23.5146 21.3283 22.989 21.3283 22.3426C21.3283 21.6959 20.803 21.1707 20.1563 21.1707Z" fill="#1B25B9"/>
<path d="M15.4685 16.4828C16.1152 16.4828 16.6404 15.9573 16.6404 15.3109C16.6404 14.6642 16.1152 14.1389 15.4685 14.1389C14.8218 14.1389 14.2965 14.6642 14.2965 15.3109C14.2965 15.9573 14.8218 16.4828 15.4685 16.4828Z" fill="#1B25B9"/>
<path d="M15.4686 18.8267C13.53 18.8267 11.9528 20.4037 11.9528 22.3426V28.2023H13.1247C13.7723 28.2023 14.2967 28.7264 14.2967 29.3743V34.1402C14.2967 34.7866 14.8219 35.3122 15.4686 35.3122C16.1153 35.3122 16.6406 34.7866 16.6406 34.1402C16.6406 24.4197 16.6406 31.2393 16.6406 27.0304C16.6406 26.1264 16.9928 25.31 17.5549 24.6865C16.9928 24.063 16.6406 23.2463 16.6406 22.3426C16.6406 21.3104 17.0956 20.3899 17.8064 19.7463C17.1695 19.1746 16.3491 18.8267 15.4686 18.8267Z" fill="#1B25B9"/>
<path d="M26.1396 24.1622L26.7872 22.8666C27.1788 22.0853 26.6093 21.1707 25.7388 21.1707H23.9492C23.7587 21.1707 23.6287 21.2375 23.4957 21.2973C23.6 21.6297 23.6721 21.9761 23.6721 22.3426C23.6721 23.2463 23.3199 24.063 22.7577 24.6865C23.3199 25.31 23.6721 26.1264 23.6721 27.0304V34.1403C23.6721 34.7867 24.1976 35.3122 24.844 35.3122C25.4907 35.3122 26.016 34.7867 26.016 34.1403V29.3743C26.016 28.7264 26.5403 28.2024 27.1879 28.2024H27.6356L26.1396 25.2105C25.9748 24.8809 25.9748 24.4918 26.1396 24.1622Z" fill="#1B25B9"/>
<path d="M24.8441 18.8267C25.4908 18.8267 26.016 18.3011 26.016 17.6547C26.016 17.008 25.4908 16.4828 24.8441 16.4828C24.1974 16.4828 23.6721 17.008 23.6721 17.6547C23.6721 18.3011 24.1974 18.8267 24.8441 18.8267Z" fill="#1B25B9"/>
</svg>
