<svg width="38" height="37" viewBox="0 0 38 37" fill="none" xmlns="http://www.w3.org/2000/svg">
<path d="M1.82664 14.1471L0 36.9797H10.7225L8.28698 14.1471H1.82664Z" fill="#44A64B"/>
<path d="M2.26191 8.70593L2.00073 11.9706H8.0548L7.70656 8.70593H2.26191Z" fill="#44A64B"/>
<path d="M34.1092 15.2352L28.2809 22.2813V15.2352H25.3032L19.1594 22.6205V15.2352H16.1785L11.2323 21.2395L11.9848 28.294H15.3241V30.4705H12.2169L12.9134 36.9999H37.0888V15.2352H34.1092ZM21.8535 30.4705H17.5006V28.294H21.8535V30.4705ZM28.383 30.4705H24.03V28.294H28.383V30.4705ZM34.9124 30.4705H30.5594V28.294H34.9124V30.4705Z" fill="#44A64B"/>
<path d="M9.66321 6.52941L10.3959 13.3983C11.5246 13.2976 12.5999 12.8674 13.4849 12.1677C14.4786 12.7467 15.6181 13.0588 16.7751 13.0588C18.5756 13.0588 20.2806 12.3151 21.5039 11.0304C22.2862 11.4103 23.1439 11.6078 24.03 11.6078C25.3055 11.6078 26.5435 11.1828 27.5476 10.4188C28.3866 10.9563 29.3631 11.2451 30.3781 11.2451C33.2783 11.2451 35.6379 8.88558 35.6379 5.98529C35.6379 3.085 33.2783 0.72549 30.3781 0.72549C29.4733 0.72549 28.5883 0.959751 27.8078 1.39715C26.7638 0.500225 25.4317 0 24.03 0C22.7578 0 21.5239 0.422235 20.5215 1.1819C19.4301 0.414255 18.1311 0 16.7751 0C14.8976 0 13.1371 0.800215 11.907 2.17843C11.262 1.93829 10.5758 1.81372 9.88296 1.81372C7.05471 1.81372 4.69382 3.84771 4.18286 6.52941H9.66321Z" fill="#1B25B9"/>
</svg>
