<svg width="46" height="40" viewBox="0 0 46 40" fill="none" xmlns="http://www.w3.org/2000/svg">
<path d="M41.5306 0H21.4348C19.1092 0 17.2244 1.88517 17.2244 4.2104V14.1091C18.2866 14.6371 19.4344 15.208 20.5058 15.7406L22.1449 12.4609C23.1374 10.4777 25.5569 9.67188 27.5394 10.6626C29.5261 11.6569 30.3312 14.0697 29.3366 16.0567L26.4147 21.9021C26.4921 22.6758 26.4234 23.4557 26.2053 24.2106H28.1344L23.0463 38.2017C22.7445 39.0316 23.328 40 24.3061 40C24.853 40 25.3674 39.6625 25.5649 39.1174L30.9859 24.2106H31.925L37.4011 39.122C37.6004 39.6643 38.1134 40 38.6599 40C39.5738 40 40.2439 39.0871 39.9169 38.1982L34.78 24.2106H41.5306C43.8558 24.2106 45.741 22.3254 45.741 20.0002V4.2104C45.741 1.88517 43.8558 0 41.5306 0V0ZM38.6592 18.4696H32.6467C31.9068 18.4696 31.3066 17.8693 31.3066 17.1295C31.3066 16.389 31.9068 15.7894 32.6467 15.7894H38.6592C39.3997 15.7894 39.9992 16.389 39.9992 17.1295C39.9992 17.8693 39.3997 18.4696 38.6592 18.4696ZM38.6592 13.4454H32.6467C31.9068 13.4454 31.3066 12.8458 31.3066 12.1053C31.3066 11.3655 31.9068 10.7652 32.6467 10.7652H38.6592C39.3997 10.7652 39.9992 11.3655 39.9992 12.1053C39.9992 12.8458 39.3997 13.4454 38.6592 13.4454ZM38.6592 8.42184H24.3061C23.5656 8.42184 22.9661 7.8216 22.9661 7.08177C22.9661 6.34194 23.5656 5.74171 24.3061 5.74171H38.6592C39.3997 5.74171 39.9992 6.34194 39.9992 7.08177C39.9992 7.8216 39.3997 8.42184 38.6592 8.42184Z" fill="#44A64B"/>
<path d="M23.5782 23.6358C23.8204 22.9264 23.8187 22.1852 23.6142 21.5088L26.9399 14.858C27.2707 14.196 27.0027 13.391 26.3407 13.0601C25.6791 12.7289 24.874 12.9973 24.5428 13.6593L21.7063 19.3316C20.011 18.4874 17.4352 17.2067 15.3602 16.1747C13.4297 15.2147 12.0519 14.3538 9.70119 14.3538H8.51711C10.3475 14.3538 11.9811 13.5113 13.0503 12.1929C13.8662 11.1896 14.3541 9.91096 14.3541 8.5175C14.3541 5.29331 11.741 2.68018 8.51642 2.68018C5.29327 2.68018 2.68014 5.29331 2.68014 8.5175C2.68014 10.0659 3.28317 11.473 4.26693 12.5171C5.33061 13.6481 6.84133 14.3538 8.51607 14.3541C6.27075 14.3541 4.07569 15.2639 2.49658 16.8472C0.886749 18.4529 0 20.5921 0 22.8709V27.1769C0 29.0307 1.20362 30.608 2.87068 31.1692V38.6596C2.87068 39.3998 3.47057 39.9997 4.21075 39.9997H12.8228C13.563 39.9997 14.1629 39.3998 14.1629 38.6596V23.603C15.4335 24.2382 17.1026 25.0726 18.4532 25.7482C19.3999 26.2214 20.5062 26.264 21.4927 25.8627C22.4765 25.4579 23.2348 24.6521 23.573 23.6516C23.5747 23.6463 23.5765 23.6411 23.5782 23.6358Z" fill="#1B25B9"/>
</svg>
