<svg width="40" height="40" viewBox="0 0 40 40" fill="none" xmlns="http://www.w3.org/2000/svg">
<path d="M20.0808 8.45239L4.70093 23.6868V38.8281C4.70093 39.4757 5.20952 40 5.85718 40H14.2058V26.9187C14.2058 26.2711 14.7457 25.7625 15.3933 25.7625H24.7683C25.416 25.7625 25.9402 26.2711 25.9402 26.9187V39.9999H34.1433C34.791 39.9999 35.2996 39.4757 35.2996 38.828V23.6868L20.0808 8.45239ZM20.0808 23.4031C17.4965 23.4031 15.3933 21.3007 15.3933 18.7156C15.3933 16.1304 17.4965 14.0281 20.0808 14.0281C22.6644 14.0281 24.7683 16.1304 24.7683 18.7156C24.7683 21.3008 22.6644 23.4031 20.0808 23.4031Z" fill="#44A64B"/>
<path d="M20.0806 16.3719C18.7874 16.3719 17.7368 17.4236 17.7368 18.7157C17.7368 20.0077 18.7874 21.0594 20.0806 21.0594C21.3738 21.0594 22.4243 20.0077 22.4243 18.7157C22.4243 17.4237 21.3738 16.3719 20.0806 16.3719Z" fill="#44A64B"/>
<path d="M23.672 28.1375H16.6407V40H23.672V28.1375Z" fill="#44A64B"/>
<path d="M39.7445 18.5686C39.7436 18.5667 39.7434 18.5648 39.7427 18.5629C39.3362 17.5601 29.0646 7.49406 28.2836 6.71312L22.5661 0.995625C21.2386 -0.331875 18.9223 -0.331875 17.5948 0.995625C16.7513 1.83906 0.679554 17.5207 0.257054 18.5627C0.256351 18.5646 0.256195 18.5669 0.256195 18.5669C-0.256539 19.8374 0.000257611 21.3461 1.02737 22.3732C1.32135 22.6677 1.66119 22.8756 2.01729 23.0404L19.252 5.96695C19.7097 5.50922 20.4513 5.50922 20.9091 5.96695L37.9932 23.0511C38.35 22.8808 38.6847 22.6609 38.9724 22.3732C39.9995 21.3461 40.2563 19.8373 39.7445 18.5686Z" fill="#1B25B9"/>
<path d="M34.143 2.35632H29.4555C28.832 2.35632 28.3349 2.79898 28.2975 3.41281L35.2992 10.4301V3.48132C35.2992 2.83359 34.7907 2.35632 34.143 2.35632Z" fill="#1B25B9"/>
</svg>
