<svg width="37" height="40" viewBox="0 0 37 40" fill="none" xmlns="http://www.w3.org/2000/svg">
<path d="M5 11.25C5 6.885 8.55167 3.33333 12.9167 3.33333H28.1383C27.59 1.415 25.8417 0 23.75 0H4.58333C2.055 0 0 2.055 0 4.58333V30.4167C0 32.945 2.055 35 4.58333 35H5V11.25Z" fill="#1B25B9"/>
<path d="M32.0834 6.66663H12.9167C10.3884 6.66663 8.33337 8.72163 8.33337 11.25V35.4166C8.33337 37.945 10.3884 40 12.9167 40H32.0834C34.6117 40 36.6667 37.945 36.6667 35.4166V11.25C36.6667 8.72163 34.6117 6.66663 32.0834 6.66663ZM28.75 35H16.25C15.56 35 15 34.44 15 33.75C15 33.06 15.56 32.5 16.25 32.5H28.75C29.44 32.5 30 33.06 30 33.75C30 34.44 29.44 35 28.75 35ZM28.75 28.3333H16.25C15.56 28.3333 15 27.7733 15 27.0833C15 26.3933 15.56 25.8333 16.25 25.8333H28.75C29.44 25.8333 30 26.3933 30 27.0833C30 27.7733 29.44 28.3333 28.75 28.3333ZM28.75 22.5H16.25C15.56 22.5 15 21.94 15 21.25C15 20.56 15.56 20 16.25 20H28.75C29.44 20 30 20.56 30 21.25C30 21.94 29.44 22.5 28.75 22.5ZM28.75 15.8333H16.25C15.56 15.8333 15 15.2733 15 14.5833C15 13.8933 15.56 13.3333 16.25 13.3333H28.75C29.44 13.3333 30 13.8933 30 14.5833C30 15.2733 29.44 15.8333 28.75 15.8333Z" fill="#44A64B"/>
</svg>
