<svg width="48" height="18" viewBox="0 0 48 18" fill="none" xmlns="http://www.w3.org/2000/svg">
<path d="M17.5097 14.171L12.7459 1.08423L7.13757 3.12642H7.13857L11.9014 16.2132L17.5097 14.171Z" fill="#44A64B"/>
<path d="M5.60851 4.74174L0 6.78296L4.08244 18L9.69094 15.9588L5.60851 4.74174Z" fill="#44A64B"/>
<path d="M19.6334 11.2813C19.8457 11.2039 20.0779 11.2011 20.2919 11.2733L25.9958 13.2001L46.2326 5.83909C46.7286 5.65851 47.1326 5.28829 47.3556 4.80989C47.5786 4.33148 47.6024 3.78408 47.4218 3.2881C47.2413 2.79211 46.871 2.38818 46.3926 2.16516C45.9142 1.94214 45.3668 1.91831 44.8708 2.09889L38.415 4.44448C38.4128 4.62326 38.3988 4.8017 38.3732 4.97865C38.1894 6.01897 37.601 6.94412 36.7367 7.55167C35.8725 8.15922 34.8028 8.3997 33.7616 8.22049L22.5639 6.24495L22.9091 4.28631L34.1078 6.26086C34.6282 6.34998 35.1627 6.22975 35.5948 5.92639C36.027 5.62303 36.3216 5.16115 36.4146 4.64143C36.4539 4.41875 36.4512 4.19068 36.4066 3.96899C36.3997 3.93418 36.3947 3.90035 36.3907 3.86952C36.3763 3.78451 36.3533 3.70119 36.3221 3.62083C36.2042 3.29169 36.001 2.99978 35.7332 2.775C35.4655 2.55023 35.1428 2.40065 34.7982 2.34161L21.5423 0L15.2964 2.27396L18.6984 11.6245L19.6334 11.2813Z" fill="#1B25B9"/>
</svg>
