<svg width="40" height="40" viewBox="0 0 40 40" fill="none" xmlns="http://www.w3.org/2000/svg">
<path d="M26.7966 7.57848H33.6124C32.3795 6.34254 28.1489 2.11597 26.7966 0.76886V7.57848Z" fill="#44A64B"/>
<path d="M38.8278 17.4221H1.17186C0.524683 17.4221 0 17.9467 0 18.5939V31.4063C0 32.0535 0.524683 32.5782 1.17186 32.5782H38.8278C39.475 32.5782 39.9997 32.0535 39.9997 31.4063V18.5939C39.9997 17.9467 39.4751 17.4221 38.8278 17.4221ZM13.1249 21.797H11.1718V29.3751C11.1718 30.0223 10.6471 30.5469 9.99991 30.5469C9.35273 30.5469 8.82805 30.0223 8.82805 29.3751V21.797H6.87494C6.22776 21.797 5.70308 21.2723 5.70308 20.6252C5.70308 19.978 6.22776 19.4533 6.87494 19.4533H13.1249C13.7721 19.4533 14.2968 19.978 14.2968 20.6252C14.2968 21.2723 13.7721 21.797 13.1249 21.797ZM23.8493 30.4721C23.2438 30.6997 22.5679 30.393 22.3404 29.787L21.9215 28.6719H18.0813L17.6584 29.7896C17.4811 30.2584 17.0354 30.5472 16.5622 30.5472C15.7491 30.5472 15.1748 29.7311 15.4664 28.9604C18.8793 19.9375 18.7307 20.3296 18.7402 20.3066C18.9525 19.7877 19.4519 19.4532 20.0115 19.4532C20.6049 19.4532 21.1067 19.8283 21.2952 20.3381L24.5344 28.963C24.7619 29.5689 24.4553 30.2445 23.8493 30.4721ZM33.1257 30.547C32.76 30.547 32.3999 30.3764 32.1711 30.0562L29.9997 27.0163L27.8284 30.0562C27.5996 30.3763 27.2394 30.547 26.8738 30.547C25.9313 30.547 25.3645 29.4731 25.9212 28.6939L28.5596 25.0001L25.9212 21.3063C25.545 20.7797 25.667 20.0478 26.1936 19.6716C26.7202 19.2954 27.4521 19.4174 27.8284 19.9441L29.9997 22.984L32.1711 19.9441C32.5473 19.4174 33.2794 19.2955 33.8059 19.6716C34.3325 20.0477 34.4545 20.7796 34.0783 21.3063L31.4399 25.0001L34.0783 28.6939C34.635 29.4733 34.0681 30.547 33.1257 30.547Z" fill="#1B25B9"/>
<path d="M5.703 37.6563C5.703 38.9486 6.7544 40 8.04673 40H31.9528C33.2451 40 34.2965 38.9486 34.2965 37.6563V34.9219H5.703V37.6563Z" fill="#44A64B"/>
<path d="M34.2966 9.92213H25.6248C24.9776 9.92213 24.453 9.39745 24.453 8.75026V0.000495787C22.6655 -0.00051983 18.3779 0.000339538 8.04685 0.000339538C6.75452 0.000339538 5.70312 1.12986 5.70312 2.42219V15.0783H34.2966V9.92213ZM17.4999 12.4221H11.8749C11.2278 12.4221 10.7031 11.8974 10.7031 11.2502C10.7031 10.6031 11.2278 10.0784 11.8749 10.0784H17.4999C18.1471 10.0784 18.6718 10.6031 18.6718 11.2502C18.6718 11.8974 18.1471 12.4221 17.4999 12.4221ZM17.4999 7.42215H11.8749C11.2278 7.42215 10.7031 6.89747 10.7031 6.25029C10.7031 5.6031 11.2278 5.07842 11.8749 5.07842H17.4999C18.1471 5.07842 18.6718 5.6031 18.6718 6.25029C18.6718 6.89747 18.1471 7.42215 17.4999 7.42215Z" fill="#44A64B"/>
<path d="M18.9677 26.3283H21.0412L20.0081 23.5776L18.9677 26.3283Z" fill="#1B25B9"/>
</svg>
