<svg width="21" height="28" viewBox="0 0 21 28" fill="none" xmlns="http://www.w3.org/2000/svg">
<path d="M18.1058 0H2.69363C1.20837 0 0 1.20837 0 2.69363V25.3064C0 26.7916 1.20837 28 2.69363 28H18.1058C19.591 28 20.7994 26.7916 20.7994 25.3064V2.69363C20.7994 1.20837 19.591 0 18.1058 0ZM3.6919 4.65369C3.6919 4.20066 4.05918 3.83337 4.51221 3.83337H16.2871C16.7402 3.83337 17.1075 4.20066 17.1075 4.65369V6.27342C17.1075 6.72645 16.7402 7.09373 16.2871 7.09373H4.51221C4.05918 7.09373 3.6919 6.72645 3.6919 6.27342V4.65369ZM6.45367 23.0735C6.45367 23.5266 6.08639 23.8938 5.63336 23.8938H4.51227C4.05923 23.8938 3.69195 23.5266 3.69195 23.0735V22.2963C3.69195 21.8433 4.05923 21.476 4.51227 21.476H5.63336C6.08639 21.476 6.45367 21.8433 6.45367 22.2963V23.0735ZM6.45367 18.2189C6.45367 18.672 6.08639 19.0392 5.63336 19.0392H4.51227C4.05923 19.0392 3.69195 18.672 3.69195 18.2189V17.4417C3.69195 16.9887 4.05923 16.6214 4.51227 16.6214H5.63336C6.08639 16.6214 6.45367 16.9887 6.45367 17.4417V18.2189ZM11.8478 23.0735C11.8478 23.5266 11.4805 23.8938 11.0275 23.8938H9.90637C9.45328 23.8938 9.08606 23.5266 9.08606 23.0735V22.2963C9.08606 21.8433 9.45328 21.476 9.90637 21.476H11.0275C11.4805 21.476 11.8478 21.8433 11.8478 22.2963V23.0735ZM11.8478 18.2189C11.8478 18.672 11.4805 19.0392 11.0275 19.0392H9.90637C9.45328 19.0392 9.08606 18.672 9.08606 18.2189V17.4417C9.08606 16.9887 9.45328 16.6214 9.90637 16.6214H11.0275C11.4805 16.6214 11.8478 16.9887 11.8478 17.4417V18.2189ZM11.8478 13.3643C11.8478 13.8173 11.4805 14.1846 11.0275 14.1846H4.51221C4.05918 14.1846 3.6919 13.8173 3.6919 13.3643V12.587C3.6919 12.134 4.05918 11.7667 4.51221 11.7667H11.0275C11.4805 11.7667 11.8478 12.134 11.8478 12.587V13.3643ZM17.2419 23.0735C17.2419 23.5266 16.8746 23.8938 16.4216 23.8938H15.3005C14.8474 23.8938 14.4802 23.5266 14.4802 23.0735V22.2963C14.4802 21.8433 14.8474 21.476 15.3005 21.476H16.4216C16.8746 21.476 17.2419 21.8433 17.2419 22.2963V23.0735ZM17.2419 18.2189C17.2419 18.672 16.8746 19.0392 16.4216 19.0392H15.3005C14.8474 19.0392 14.4802 18.672 14.4802 18.2189V17.4417C14.4802 16.9887 14.8474 16.6214 15.3005 16.6214H16.4216C16.8746 16.6214 17.2419 16.9887 17.2419 17.4417V18.2189ZM17.2419 13.3643C17.2419 13.8173 16.8746 14.1846 16.4216 14.1846H15.3005C14.8474 14.1846 14.4802 13.8173 14.4802 13.3643V12.587C14.4802 12.134 14.8474 11.7667 15.3005 11.7667H16.4216C16.8746 11.7667 17.2419 12.134 17.2419 12.587V13.3643Z" fill="#898989"/>
</svg>
