<svg width="30" height="30" viewBox="0 0 30 30" fill="none" xmlns="http://www.w3.org/2000/svg" color="#00a2e8">
<path d="M5.625 7.8125V2.1875C5.625 1.8625 5.6625 1.55 5.75 1.25H2.1875C0.9875 1.25 0 2.2375 0 3.4375V9.0625C0 10.2625 0.9875 11.25 2.1875 11.25H2.65L4.25 13.375C4.425 13.6 4.6875 13.7375 4.9625 13.75H5C5.275 13.75 5.525 13.6375 5.7 13.425L7.575 11.2875C6.4125 10.5625 5.625 9.275 5.625 7.8125Z" fill="#898989"/>
<path d="M27.8125 1.25H24.25C24.3375 1.55 24.375 1.8625 24.375 2.1875V7.8125C24.375 9.275 23.5875 10.5625 22.425 11.2875L24.3 13.425C24.475 13.6375 24.725 13.75 25 13.75H25.0375C25.3125 13.7375 25.575 13.6 25.75 13.375L27.3375 11.25H27.8125C29.0125 11.25 30 10.2625 30 9.0625V3.4375C30 2.2375 29.0125 1.25 27.8125 1.25Z" fill="#898989"/>
<path d="M15 12.5C14.9887 12.5 14.9763 12.5 14.965 12.5C14.6825 12.4888 14.42 12.3513 14.25 12.125L12.6562 10H9.6875C8.48125 10 7.5 9.01875 7.5 7.8125V2.1875C7.5 0.98125 8.48125 0 9.6875 0H20.3125C21.5188 0 22.5 0.98125 22.5 2.1875V7.8125C22.5 9.01875 21.5188 10 20.3125 10H17.6125L15.705 12.18C15.5275 12.3838 15.27 12.5 15 12.5Z" fill="#898989"/>
<path d="M5 21.25C6.38071 21.25 7.5 20.1307 7.5 18.75C7.5 17.3693 6.38071 16.25 5 16.25C3.61929 16.25 2.5 17.3693 2.5 18.75C2.5 20.1307 3.61929 21.25 5 21.25Z" fill="#898989"/>
<path d="M8.3375 23C7.075 23.95 6.25 25.475 6.25 27.1875V27.5H0.9375C0.425 27.5 0 27.075 0 26.5625V25.9375C0 24.0375 1.5375 22.5 3.4375 22.5H6.5625C7.2125 22.5 7.825 22.6875 8.3375 23Z" fill="#898989"/>
<path d="M25 21.25C26.3807 21.25 27.5 20.1307 27.5 18.75C27.5 17.3693 26.3807 16.25 25 16.25C23.6193 16.25 22.5 17.3693 22.5 18.75C22.5 20.1307 23.6193 21.25 25 21.25Z" fill="#898989"/>
<path d="M30 25.9375V26.5625C30 27.075 29.575 27.5 29.0625 27.5H23.75V27.1875C23.75 25.475 22.925 23.95 21.6625 23C22.175 22.6875 22.7875 22.5 23.4375 22.5H26.5625C28.4625 22.5 30 24.0375 30 25.9375Z" fill="#898989"/>
<path d="M15 21.875C17.0711 21.875 18.75 20.1961 18.75 18.125C18.75 16.0539 17.0711 14.375 15 14.375C12.9289 14.375 11.25 16.0539 11.25 18.125C11.25 20.1961 12.9289 21.875 15 21.875Z" fill="#898989"/>
<path d="M18.4375 23.75H11.5625C9.66625 23.75 8.125 25.2912 8.125 27.1875V29.0625C8.125 29.58 8.545 30 9.0625 30H20.9375C21.455 30 21.875 29.58 21.875 29.0625V27.1875C21.875 25.2912 20.3337 23.75 18.4375 23.75Z" fill="#898989"/>
</svg>
