<svg width="28" height="29" viewBox="0 0 28 29" fill="none" xmlns="http://www.w3.org/2000/svg">
<path d="M14 0L7.51434 5.95489H10.922V10.1163C12.0831 10.2162 13.1447 10.6688 13.9995 11.366C14.8345 10.685 15.8668 10.2373 16.9962 10.1236V5.95484H20.4857L14 0Z" fill="#898989"/>
<path d="M24.1245 14.8394C24.7519 14.1328 25.134 13.2037 25.134 12.1867C25.134 9.98071 23.3393 8.18604 21.1334 8.18604C19.6926 8.18604 18.4276 8.95187 17.7231 10.0975C20.7673 10.181 23.218 12.6832 23.218 15.7472C23.218 16.427 23.0955 17.0944 22.8615 17.7206C24.0773 18.548 25.0133 19.7194 25.5559 21.0735L27.9999 21.0762V20.2497H28C28 17.742 26.376 15.6064 24.1245 14.8394Z" fill="#898989"/>
<path d="M10.2768 10.0975C9.57234 8.95182 8.30726 8.18604 6.86652 8.18604C4.66056 8.18604 2.86594 9.98071 2.86594 12.1867C2.86594 13.2037 3.24803 14.1328 3.87545 14.8394C1.62399 15.6064 0 17.7419 0 20.2497V21.0762L2.44391 21.0735C2.98656 19.7195 3.92271 18.5479 5.13849 17.7206C4.90451 17.0945 4.78196 16.427 4.78196 15.7472C4.7819 12.6832 7.23264 10.181 10.2768 10.0975Z" fill="#898989"/>
<path d="M20.5573 18.3999C21.1847 17.6933 21.5669 16.7642 21.5669 15.7472C21.5669 13.5413 19.7722 11.7466 17.5662 11.7466C16.1234 11.7466 14.8568 12.5145 14.1529 13.6629C17.1993 13.7438 19.6527 16.2471 19.6527 19.3127C19.6527 20.0116 19.5236 20.6968 19.2774 21.3372C20.4559 22.1617 21.3653 23.3137 21.898 24.638L24.4327 24.6348V23.8101C24.4327 21.3025 22.8088 19.167 20.5573 18.3999Z" fill="#898989"/>
<path d="M13.8472 13.6629C13.1433 12.5145 11.8766 11.7466 10.4338 11.7466C8.22788 11.7466 6.4332 13.5413 6.4332 15.7472C6.4332 16.7643 6.81529 17.6934 7.44271 18.3999C5.19125 19.167 3.56732 21.3025 3.56732 23.8102V24.6348L6.11891 24.6381C6.64994 23.3185 7.55502 22.1696 8.72724 21.3457C8.47888 20.7029 8.34878 20.0148 8.34878 19.3126C8.34878 16.2475 10.8014 13.7445 13.8472 13.6629Z" fill="#898989"/>
<path d="M16.9708 21.9896C17.6109 21.2801 18.0013 20.3412 18.0013 19.3127C18.0013 17.1067 16.2067 15.312 14.0007 15.312C11.7947 15.312 10 17.1067 10 19.3127C10 20.3431 10.3918 21.2837 11.0341 21.9936C8.8243 22.7836 7.23871 24.8978 7.23871 27.3756V28.2012H20.7777V27.3756C20.7777 24.8936 19.1866 22.7764 16.9708 21.9896Z" fill="#898989"/>
</svg>
