<svg width="19" height="19" viewBox="0 0 19 19" fill="none" xmlns="http://www.w3.org/2000/svg">
<path d="M10.6903 16.6224C6.10116 16.6224 2.38086 12.9021 2.38086 8.31287C2.38086 3.72364 6.10112 0.00341797 10.6903 0.00341797C15.2796 0.00341797 18.9998 3.72368 18.9998 8.31291C18.9998 12.9021 15.2795 16.6224 10.6903 16.6224ZM10.6903 2.37757C7.41234 2.37757 4.75501 5.03489 4.75501 8.31291C4.75501 11.5909 7.41234 14.2482 10.6903 14.2482C13.9684 14.2482 16.6257 11.5909 16.6257 8.31291C16.6257 5.03489 13.9683 2.37757 10.6903 2.37757Z" fill="#BFBFBF"/>
<path d="M1.19395 18.9965C0.878415 18.9983 0.575151 18.8744 0.35114 18.6522C-0.114353 18.1905 -0.117422 17.4389 0.344266 16.9734C0.346557 16.9711 0.348849 16.9689 0.35114 16.9666L4.81451 12.5032C5.29637 12.0377 6.06435 12.051 6.52984 12.5329C6.99533 13.0147 6.98204 13.7827 6.50018 14.2482L2.03677 18.6522C1.81276 18.8744 1.50949 18.9983 1.19395 18.9965Z" fill="#BFBFBF"/>
</svg>
