<svg width="17" height="16" viewBox="0 0 17 16" fill="none" xmlns="http://www.w3.org/2000/svg">
<path d="M15.8457 2.62054C15.9021 2.62065 15.958 2.60911 16.0102 2.58661C16.0623 2.5641 16.1097 2.53106 16.1496 2.48938C16.1895 2.4477 16.2211 2.3982 16.2427 2.34372C16.2642 2.28925 16.2753 2.23086 16.2752 2.17192V1.27626C16.2753 1.21732 16.2642 1.15893 16.2427 1.10446C16.2211 1.04998 16.1895 1.00048 16.1496 0.958804C16.1097 0.917124 16.0623 0.884083 16.0102 0.861575C15.958 0.839066 15.9021 0.827533 15.8457 0.827637H1.25707C1.20065 0.827533 1.14476 0.839066 1.09262 0.861575C1.04047 0.884083 0.99309 0.917124 0.953194 0.958804C0.913297 1.00048 0.881669 1.04998 0.860123 1.10446C0.838577 1.15893 0.827538 1.21732 0.827637 1.27626V2.17034C0.827538 2.22929 0.838577 2.28767 0.860123 2.34215C0.881669 2.39662 0.913297 2.44612 0.953194 2.4878C0.99309 2.52948 1.04047 2.56252 1.09262 2.58503C1.14476 2.60753 1.20065 2.61907 1.25707 2.61896H1.68575V13.3796H1.25707C1.20071 13.3795 1.14489 13.391 1.09279 13.4134C1.04069 13.4359 0.993348 13.4688 0.953461 13.5104C0.913575 13.552 0.881931 13.6014 0.860341 13.6558C0.83875 13.7102 0.827637 13.7685 0.827637 13.8274V14.7238C0.827538 14.7828 0.838577 14.8412 0.860123 14.8956C0.881669 14.9501 0.913297 14.9996 0.953194 15.0413C0.99309 15.083 1.04047 15.116 1.09262 15.1385C1.14476 15.161 1.20065 15.1726 1.25707 15.1725H7.69329V12.9309C7.69349 12.812 7.73879 12.698 7.81928 12.6139C7.89978 12.5299 8.00889 12.4825 8.12272 12.4823H8.98083C9.09466 12.4825 9.20377 12.5299 9.28427 12.6139C9.36476 12.698 9.41006 12.812 9.41026 12.9309V15.1725H15.8465C15.9029 15.1726 15.9588 15.161 16.0109 15.1385C16.0631 15.116 16.1105 15.083 16.1504 15.0413C16.1903 14.9996 16.2219 14.9501 16.2434 14.8956C16.265 14.8412 16.276 14.7828 16.2759 14.7238V13.8274C16.276 13.7684 16.265 13.7101 16.2434 13.6556C16.2219 13.6011 16.1903 13.5516 16.1504 13.5099C16.1105 13.4683 16.0631 13.4352 16.0109 13.4127C15.9588 13.3902 15.9029 13.3787 15.8465 13.3788H15.4193V2.62054H15.8457ZM7.69329 3.87558C7.6993 3.78254 7.7374 3.69494 7.80051 3.62901C7.86362 3.56308 7.94748 3.52328 8.03653 3.517H9.06853C9.15758 3.52328 9.24144 3.56308 9.30455 3.62901C9.36767 3.69494 9.40576 3.78254 9.41178 3.87558V4.95211C9.40576 5.04514 9.36767 5.13274 9.30455 5.19868C9.24144 5.26461 9.15758 5.30441 9.06853 5.31069H8.03653C7.94748 5.30441 7.86362 5.26461 7.80051 5.19868C7.7374 5.13274 7.6993 5.04514 7.69329 4.95211V3.87558ZM7.69329 6.56494C7.6993 6.4719 7.7374 6.3843 7.80051 6.31837C7.86362 6.25244 7.94748 6.21264 8.03653 6.20635H9.06853C9.15758 6.21264 9.24144 6.25244 9.30455 6.31837C9.36767 6.3843 9.40576 6.4719 9.41178 6.56494V7.64147C9.40576 7.7345 9.36767 7.8221 9.30455 7.88804C9.24144 7.95397 9.15758 7.99377 9.06853 8.00005H8.03653C7.94748 7.99377 7.86362 7.95397 7.80051 7.88804C7.7374 7.8221 7.6993 7.7345 7.69329 7.64147V6.56494ZM4.26008 3.87558C4.2661 3.78254 4.30419 3.69494 4.36731 3.62901C4.43042 3.56308 4.51427 3.52328 4.60333 3.517H5.63382C5.72287 3.52328 5.80672 3.56308 5.86984 3.62901C5.93295 3.69494 5.97105 3.78254 5.97706 3.87558V4.95211C5.97105 5.04514 5.93295 5.13274 5.86984 5.19868C5.80672 5.26461 5.72287 5.30441 5.63382 5.31069H4.60333C4.51427 5.30441 4.43042 5.26461 4.36731 5.19868C4.30419 5.13274 4.2661 5.04514 4.26008 4.95211V3.87558ZM5.63382 8.00005H4.60333C4.51427 7.99377 4.43042 7.95397 4.36731 7.88804C4.30419 7.8221 4.2661 7.7345 4.26008 7.64147V6.56573C4.2661 6.47269 4.30419 6.38509 4.36731 6.31916C4.43042 6.25323 4.51427 6.21343 4.60333 6.20714H5.63382C5.72287 6.21343 5.80672 6.25323 5.86984 6.31916C5.93295 6.38509 5.97105 6.47269 5.97706 6.56573V7.64147C5.97105 7.7345 5.93295 7.8221 5.86984 7.88804C5.80672 7.95397 5.72287 7.99377 5.63382 8.00005ZM5.97706 11.5859C5.97706 10.8725 6.24833 10.1883 6.73118 9.68392C7.21403 9.17949 7.86892 8.89611 8.55177 8.89611C9.23463 8.89611 9.88952 9.17949 10.3724 9.68392C10.8552 10.1883 11.1265 10.8725 11.1265 11.5859H5.97706ZM12.8427 7.64147C12.8367 7.7345 12.7986 7.8221 12.7355 7.88804C12.6724 7.95397 12.5885 7.99377 12.4995 8.00005H11.469C11.3799 7.99377 11.2961 7.95397 11.233 7.88804C11.1698 7.8221 11.1317 7.7345 11.1257 7.64147V6.56573C11.1317 6.47269 11.1698 6.38509 11.233 6.31916C11.2961 6.25323 11.3799 6.21343 11.469 6.20714H12.4987C12.5878 6.21343 12.6716 6.25323 12.7347 6.31916C12.7978 6.38509 12.8359 6.47269 12.842 6.56573L12.8427 7.64147ZM12.8427 4.95211C12.8367 5.04514 12.7986 5.13274 12.7355 5.19868C12.6724 5.26461 12.5885 5.30441 12.4995 5.31069H11.469C11.3799 5.30441 11.2961 5.26461 11.233 5.19868C11.1698 5.13274 11.1317 5.04514 11.1257 4.95211V3.87558C11.1317 3.78254 11.1698 3.69494 11.233 3.62901C11.2961 3.56308 11.3799 3.52328 11.469 3.517H12.4987C12.5878 3.52328 12.6716 3.56308 12.7347 3.62901C12.7978 3.69494 12.8359 3.78254 12.842 3.87558L12.8427 4.95211Z" fill="white"/>
</svg>
