<svg width="30" height="30" viewBox="0 0 30 30" fill="none" xmlns="http://www.w3.org/2000/svg">
<path d="M13.75 17.1875C13.75 16.6712 13.3275 16.25 12.8125 16.25H8.125V20C8.125 20.69 7.565 21.25 6.875 21.25C6.185 21.25 5.625 20.69 5.625 20V16.25H0.9375C0.42125 16.25 0 16.6712 0 17.1875V29.0625C0 29.5787 0.42125 30 0.9375 30H12.8125C13.3275 30 13.75 29.5787 13.75 29.0625V17.1875Z" fill="#898989"/>
<path d="M30 17.1875C30 16.6712 29.5775 16.25 29.0625 16.25H24.375V20C24.375 20.69 23.815 21.25 23.125 21.25C22.435 21.25 21.875 20.69 21.875 20V16.25H17.1875C16.6712 16.25 16.25 16.6712 16.25 17.1875V29.0625C16.25 29.5787 16.6712 30 17.1875 30H29.0625C29.5775 30 30 29.5787 30 29.0625V17.1875Z" fill="#898989"/>
<path d="M21.875 0.9375C21.875 0.4225 21.4525 0 20.9375 0H16.25V3.75C16.25 4.44 15.69 5 15 5C14.31 5 13.75 4.44 13.75 3.75V0H9.0625C8.54625 0 8.125 0.4225 8.125 0.9375V12.8125C8.125 13.3287 8.54625 13.75 9.0625 13.75H20.9375C21.4525 13.75 21.875 13.3287 21.875 12.8125V0.9375Z" fill="#898989"/>
</svg>
