<svg width="30" height="28" viewBox="0 0 30 28" fill="none" xmlns="http://www.w3.org/2000/svg">
<path d="M8.23369 3.84554C8.23369 1.72175 9.95543 0 12.0795 0C14.2033 0 15.9252 1.72175 15.9252 3.84554C15.9252 5.96932 14.2033 7.69102 12.0795 7.69102C9.95543 7.69107 8.23369 5.96932 8.23369 3.84554ZM13.9276 10.311C13.9662 9.4736 14.2544 8.69857 14.7182 8.05785C14.3927 7.98969 14.0563 7.95348 13.7112 7.95348H10.4483C10.1041 7.95348 9.76818 7.98941 9.44438 8.05673C9.93792 8.74127 10.2331 9.5773 10.2379 10.4823C10.8379 10.1524 11.5262 9.9645 12.2573 9.9645C12.8504 9.9645 13.4151 10.0881 13.9276 10.311ZM14.5786 10.6561C15.6956 11.3566 16.4789 12.5414 16.6222 13.9173C17.0773 14.13 17.5831 14.2528 18.1189 14.2528C20.0758 14.2528 21.662 12.6664 21.662 10.7096C21.662 8.75252 20.0758 7.16653 18.1189 7.16653C16.1799 7.16659 14.608 8.72442 14.5786 10.6561ZM12.2573 17.9109C14.2139 17.9109 15.8001 16.3242 15.8001 14.3679C15.8001 12.4113 14.2139 10.8248 12.2573 10.8248C10.3006 10.8248 8.71362 12.4112 8.71362 14.3679C8.71368 16.3242 10.3006 17.9109 12.2573 17.9109ZM13.7602 18.1521H10.7541C8.25271 18.1521 6.21724 20.1874 6.21724 22.6891V26.366L6.22681 26.4236L6.47987 26.5023C8.86713 27.2479 10.9411 27.4972 12.6483 27.4972C15.9821 27.4972 17.9152 26.5466 18.0343 26.4858L18.271 26.3659H18.2962V22.689C18.2962 20.1874 16.2619 18.1521 13.7602 18.1521ZM19.6227 14.4946H16.6391C16.6067 15.6884 16.0972 16.7634 15.2914 17.5361C17.5149 18.1973 19.1418 20.2591 19.1418 22.6947V23.8276C22.087 23.7192 23.7846 22.8849 23.8964 22.8287L24.1333 22.7082H24.1584V19.0306C24.1587 16.5296 22.1234 14.4946 19.6227 14.4946ZM20.4202 7.09098C21.5373 7.79158 22.3205 8.97642 22.4634 10.3523C22.9186 10.565 23.4244 10.6875 23.9602 10.6875C25.9175 10.6875 27.5036 9.10144 27.5036 7.14488C27.5036 5.18775 25.9175 3.60182 23.9602 3.60182C22.0215 3.60159 20.4497 5.15976 20.4202 7.09098ZM25.4636 10.9294H22.4806C22.4482 12.1232 21.9388 13.1983 21.133 13.9709C23.3565 14.6319 24.9833 16.694 24.9833 19.1295V20.2625C27.9283 20.1543 29.6262 19.3201 29.738 19.2634L29.9745 19.1434H30V15.4654C30.0003 12.9646 27.965 10.9294 25.4636 10.9294ZM6.04045 14.2528C6.7336 14.2528 7.37813 14.0503 7.92472 13.7057C8.09854 12.5729 8.70584 11.5829 9.57304 10.9089C9.57668 10.8424 9.58278 10.7768 9.58278 10.7096C9.58278 8.75257 7.99618 7.16659 6.04045 7.16659C4.08304 7.16659 2.49711 8.75252 2.49711 10.7096C2.49711 12.6668 4.08298 14.2528 6.04045 14.2528ZM9.22238 17.5361C8.42038 16.7671 7.91263 15.6979 7.87524 14.5111C7.76494 14.5029 7.65542 14.4946 7.54266 14.4946H4.53684C2.03514 14.4946 0 16.5296 0 19.031V22.7082L0.00928981 22.7655L0.262689 22.8445C2.1774 23.4432 3.88689 23.7184 5.37164 23.8044V22.6943C5.37192 20.2591 6.99836 18.197 9.22238 17.5361Z" fill="#898989"/>
</svg>
