<svg width="30" height="30" viewBox="0 0 30 30" fill="none" xmlns="http://www.w3.org/2000/svg">
<path d="M11.4844 10.6055C10.9995 10.6055 10.6055 10.9995 10.6055 11.4844C10.6055 11.9693 10.9995 12.3633 11.4844 12.3633C11.9693 12.3633 12.3633 11.9693 12.3633 11.4844C12.3633 10.9995 11.9693 10.6055 11.4844 10.6055Z" fill="#898989"/>
<path d="M11.4844 21.1523C10.9995 21.1523 10.6055 21.5463 10.6055 22.0312V24.668H12.3633V22.0312C12.3633 21.5463 11.9693 21.1523 11.4844 21.1523Z" fill="#898989"/>
<path d="M0 26.4258V29.1211C0 29.6065 0.393516 30 0.878906 30H29.1211C29.6065 30 30 29.6065 30 29.1211V26.4258H0Z" fill="#898989"/>
<path d="M23.7891 21.1523H22.0312V24.668H23.7891V21.1523Z" fill="#898989"/>
<path d="M29.6482 17.8126L23.4373 12.5392C23.1248 12.304 22.6957 12.304 22.3833 12.5392L16.2309 17.8126C15.9279 18.0392 15.8044 18.4349 15.9245 18.7937C16.0438 19.1524 16.3793 19.3945 16.7579 19.3945H17.6368V24.6679H20.2735V20.2734C20.2735 19.7876 20.6666 19.3945 21.1524 19.3945H24.668C25.1538 19.3945 25.5469 19.7876 25.5469 20.2734V24.6679H28.1836V19.3945H29.1211C29.4997 19.3945 29.8353 19.1524 29.9546 18.7937C30.0748 18.4349 29.9511 18.0392 29.6482 17.8126Z" fill="#898989"/>
<path d="M19.137 9.10513L12.1057 2.07388C11.7624 1.73058 11.2062 1.73058 10.8629 2.07388L3.83166 9.10513C3.48835 9.44843 3.4883 10.0046 3.83166 10.348C4.17496 10.6913 4.73119 10.6913 5.07449 10.348L5.33201 10.0904V24.6679H8.84763V22.0312C8.84763 20.5773 10.0304 19.3945 11.4844 19.3945C12.9383 19.3945 14.1211 20.5773 14.1211 22.0312V24.6679H15.8789V21.0021C15.1261 20.7369 14.5185 20.1369 14.2567 19.3481C13.8953 18.2718 14.2652 17.0874 15.1776 16.405L17.6367 14.2952V10.0904L17.8942 10.348C18.2375 10.6913 18.7937 10.6913 19.137 10.348C19.4803 10.0047 19.4804 9.44849 19.137 9.10513ZM11.4844 14.121C10.0304 14.121 8.84763 12.9383 8.84763 11.4843C8.84763 10.0304 10.0304 8.84761 11.4844 8.84761C12.9383 8.84761 14.1211 10.0304 14.1211 11.4843C14.1211 12.9383 12.9383 14.121 11.4844 14.121Z" fill="#898989"/>
<path d="M0.60082 14.1664C0.242051 14.2858 0 14.6213 0 14.9999V17.6366H0.878906C1.36471 17.6366 1.75781 18.0297 1.75781 18.5155C1.75781 19.0013 1.36471 19.3944 0.878906 19.3944H0V21.1522H0.878906C1.36471 21.1522 1.75781 21.5453 1.75781 22.0311C1.75781 22.5169 1.36471 22.91 0.878906 22.91H0V24.6678H3.57422V13.1948L0.60082 14.1664Z" fill="#898989"/>
<path d="M29.7812 5.86781C29.3646 4.13678 28.2142 0 26.4258 0C24.6403 0 23.5544 4.12793 23.1567 5.7675C22.9669 7.03307 22.9102 7.35246 22.9102 7.96875C22.9102 10.0253 24 10.4824 25.5469 10.5703V12.0362L27.3047 13.5415V10.5703C28.8516 10.4824 30 10.0254 30 7.96881C30 7.31338 29.9222 6.85564 29.7812 5.86781Z" fill="#898989"/>
</svg>
