<svg width="17" height="19" viewBox="0 0 17 19" fill="none" xmlns="http://www.w3.org/2000/svg">
<path d="M15.6781 14.38H14.9658V9.39566C14.9641 8.01862 14.52 6.67856 13.6988 5.57313C12.8777 4.46771 11.723 3.65543 10.4052 3.25611C10.5608 2.94111 10.6336 2.59162 10.6166 2.24067C10.5996 1.88972 10.4933 1.54891 10.3079 1.25045C10.1225 0.951993 9.86402 0.705754 9.55693 0.53501C9.24984 0.364266 8.90428 0.274658 8.55292 0.274658C8.20156 0.274658 7.856 0.364266 7.54891 0.53501C7.24183 0.705754 6.98336 0.951993 6.79794 1.25045C6.61252 1.54891 6.50629 1.88972 6.48927 2.24067C6.47225 2.59162 6.54502 2.94111 6.70069 3.25611C5.38281 3.65543 4.22816 4.46771 3.40701 5.57313C2.58587 6.67856 2.14171 8.01862 2.14004 9.39566V14.38H1.42776C1.23875 14.38 1.05748 14.4551 0.923826 14.5887C0.790173 14.7224 0.715088 14.9036 0.715088 15.0926C0.715088 15.2817 0.790173 15.4629 0.923826 15.5966C1.05748 15.7302 1.23875 15.8053 1.42776 15.8053H5.06551C5.22962 16.571 5.65112 17.2573 6.25979 17.75C6.86846 18.2427 7.62755 18.5119 8.41063 18.5129H8.69602C9.47909 18.5119 10.2382 18.2427 10.8469 17.75C11.4555 17.2573 11.877 16.571 12.0411 15.8053H15.6789C15.8679 15.8053 16.0492 15.7302 16.1828 15.5966C16.3165 15.4629 16.3916 15.2817 16.3916 15.0926C16.3916 14.9036 16.3165 14.7224 16.1828 14.5887C16.0492 14.4551 15.8679 14.38 15.6789 14.38H15.6781ZM7.91139 2.33803C7.91139 2.21083 7.94911 2.08649 8.01978 1.98072C8.09045 1.87496 8.19089 1.79253 8.30841 1.74385C8.42593 1.69517 8.55524 1.68243 8.68 1.70725C8.80476 1.73207 8.91935 1.79332 9.0093 1.88326C9.09924 1.97321 9.16049 2.0878 9.18531 2.21256C9.21012 2.33732 9.19739 2.46663 9.14871 2.58415C9.10003 2.70167 9.0176 2.80211 8.91184 2.87278C8.80607 2.94345 8.68173 2.98117 8.55453 2.98117C8.38396 2.98117 8.22037 2.91341 8.09976 2.7928C7.97915 2.67218 7.91139 2.5086 7.91139 2.33803ZM8.69521 17.0868H8.41063C8.00637 17.086 7.61185 16.9626 7.27915 16.733C6.94645 16.5034 6.69121 16.1782 6.54714 15.8005H10.5595C10.4154 16.1782 10.1602 16.5034 9.8275 16.733C9.4948 16.9626 9.10028 17.086 8.69602 17.0868H8.69521ZM3.56539 14.38V9.39566C3.56539 8.74069 3.6944 8.09213 3.94505 7.48701C4.19569 6.8819 4.56307 6.33208 5.02621 5.86894C5.48934 5.40581 6.03916 5.03843 6.64428 4.78778C7.24939 4.53713 7.89795 4.40813 8.55292 4.40813C9.20789 4.40813 9.85645 4.53713 10.4616 4.78778C11.0667 5.03843 11.6165 5.40581 12.0796 5.86894C12.5428 6.33208 12.9102 6.8819 13.1608 7.48701C13.4114 8.09213 13.5405 8.74069 13.5405 9.39566V14.38H3.56539Z" fill="#FF5A5A"/>
</svg>
