<svg width="31" height="30" viewBox="0 0 31 30" fill="none" xmlns="http://www.w3.org/2000/svg">
<path d="M7.15115 22.5006H5.35663V28.3929H19.3443C19.5792 28.3923 19.8112 28.3411 20.0241 28.2422L29.3045 23.9166C29.8679 23.6493 30.2273 23.0812 30.2276 22.4577C30.227 22.2217 30.1758 21.9887 30.0769 21.7748C29.7024 20.9736 28.749 20.6281 27.9481 21.0032L20.6685 24.3924C20.3144 24.5572 19.9289 24.6427 19.5384 24.6432H13.3916V23.5719H18.2125C19.1 23.5719 19.8195 22.8524 19.8195 21.9649C19.8195 21.0772 19.1 20.3579 18.2125 20.3579H10.1776C9.04376 20.3561 8.03285 21.0709 7.65674 22.1404C7.58193 22.3559 7.37897 22.5003 7.15115 22.5006Z" fill="#898989"/>
<path d="M0 20.3579H4.2853V29.9998H0V20.3579Z" fill="#898989"/>
<path d="M17.6769 3.21696H14.9986C14.7956 3.21696 14.6099 3.10213 14.5191 2.92062L14.3162 2.51416L13.7703 3.06002C13.6699 3.16046 13.5336 3.21669 13.3916 3.21696H12.3203V3.75262C12.3203 5.23171 13.5195 6.43093 14.9986 6.43093C16.4777 6.43093 17.6769 5.23171 17.6769 3.75262V3.21696Z" fill="#898989"/>
<path d="M13.1697 2.14553L14.0841 1.23114C14.206 1.10951 14.3787 1.05406 14.5484 1.08153C14.7179 1.10925 14.8641 1.21649 14.9413 1.37028L15.3297 2.14553H17.6232C17.3698 0.897131 16.2723 0 14.9985 0C13.7248 0 12.6273 0.897131 12.3738 2.14553H13.1697Z" fill="#898989"/>
<path d="M17.2885 8.73985C16.8912 8.63157 16.4816 8.5756 16.0699 8.57324H13.9273C13.5159 8.5756 13.1063 8.63157 12.7092 8.73985L14.9986 11.0298L17.2885 8.73985Z" fill="#898989"/>
<path d="M9.10629 13.3946V17.1442H14.4629V12.0091L11.6303 9.17676C10.7457 9.65462 10.0319 10.3961 9.58833 11.2985C9.26871 11.9508 9.10393 12.668 9.10629 13.3946Z" fill="#898989"/>
<path d="M20.8908 13.3946C20.8926 12.6685 20.7276 11.9518 20.4088 11.2995C19.9646 10.3969 19.2506 9.65488 18.3658 9.17676L15.5342 12.0091V17.1442H20.8908V13.3946ZM19.2838 13.3946H17.1412V12.3233H19.2838V13.3946Z" fill="#898989"/>
</svg>
