<svg width="30" height="30" viewBox="0 0 30 30" fill="none" xmlns="http://www.w3.org/2000/svg">
<path d="M19.3642 15.8789C18.9558 17.8823 17.122 19.3945 15 19.3945C12.8779 19.3945 11.1027 17.8823 10.6944 15.8789H8.93646C9.36754 18.8525 11.9089 21.1523 15 21.1523C18.0911 21.1523 20.691 18.8525 21.1221 15.8789H19.3642Z" fill="#898989"/>
<path d="M22.8799 15.8789C22.4362 19.8231 19.061 22.9102 15 22.9102C10.939 22.9102 7.6224 19.8231 7.17867 15.8789H0V16.7578C0 17.1363 0.24293 17.4728 0.601699 17.5921L4.21799 18.7723C4.36992 19.2032 4.53041 19.5954 4.70209 19.9576L3.03352 23.3101C2.86529 23.6483 2.93221 24.056 3.19916 24.3229L5.67709 26.8008C5.94574 27.0695 6.35256 27.133 6.68988 26.9665L10.0424 25.2979C10.4047 25.4696 10.7969 25.6301 11.2277 25.782L12.4079 29.3983C12.5272 29.7571 12.8637 30 13.2422 30H16.8164C17.1949 30 17.5314 29.7571 17.6507 29.3983L18.8309 25.782C19.2618 25.6301 19.654 25.4696 20.0162 25.2979L23.3687 26.9665C23.706 27.1338 24.1137 27.0695 24.3815 26.8008L26.8594 24.3229C27.1264 24.056 27.1933 23.6483 27.0251 23.3101L25.3565 19.9576C25.5282 19.5953 25.6887 19.2031 25.8406 18.7723L29.3983 17.5921C29.7571 17.4728 30 17.1363 30 16.7578V15.8789H22.8799Z" fill="#898989"/>
<path d="M12.5251 15.8789C12.8892 16.8997 13.8556 17.6367 15 17.6367C16.1443 17.6367 17.1693 16.8997 17.5334 15.8789H12.5251Z" fill="#898989"/>
<path d="M15 0C13.0611 0 11.4844 1.5767 11.4844 3.51562C11.4844 5.45455 13.0611 7.03125 15 7.03125C16.9389 7.03125 18.5742 5.45455 18.5742 3.51562C18.5742 1.5767 16.9389 0 15 0Z" fill="#898989"/>
<path d="M23.8477 0C21.9087 0 20.332 1.5767 20.332 3.51562C20.332 5.45455 21.9087 7.03125 23.8477 7.03125C25.7866 7.03125 27.3633 5.45455 27.3633 3.51562C27.3633 1.5767 25.7866 0 23.8477 0Z" fill="#898989"/>
<path d="M6.21094 0C4.27201 0 2.69531 1.5767 2.69531 3.51562C2.69531 5.45455 4.27201 7.03125 6.21094 7.03125C8.14986 7.03125 9.72656 5.45455 9.72656 3.51562C9.72656 1.5767 8.14986 0 6.21094 0Z" fill="#898989"/>
<path d="M26.8456 7.84473C25.9931 8.43705 24.9622 8.78908 23.8477 8.78908C22.7378 8.78908 21.71 8.4408 20.8596 7.85299C20.4741 8.0743 20.1036 8.32315 19.7681 8.6232C21.4774 9.9009 22.6641 11.8964 22.9151 14.1211H30V13.2422C30 10.944 28.7179 8.90088 26.8456 7.84473Z" fill="#898989"/>
<path d="M15 8.78906C11.9058 8.78906 9.33778 11.1437 8.91034 14.1211H21.1483C20.7209 11.1437 18.0943 8.78906 15 8.78906Z" fill="#898989"/>
<path d="M9.19904 7.85299C8.34855 8.4408 7.32082 8.78908 6.21094 8.78908C5.09643 8.78908 4.06547 8.43705 3.21299 7.84473C1.34068 8.90088 0 10.944 0 13.2422V14.1211H7.14352C7.39453 11.8964 8.58123 9.9009 10.2905 8.6232C9.95496 8.32315 9.58453 8.0743 9.19904 7.85299Z" fill="#898989"/>
</svg>
