<svg width="33" height="21" viewBox="0 0 33 21" fill="none" xmlns="http://www.w3.org/2000/svg">
<path d="M16.0997 9.8C18.8059 9.8 20.9997 7.60619 20.9997 4.9C20.9997 2.1938 18.8059 0 16.0997 0C13.3935 0 11.1997 2.1938 11.1997 4.9C11.1997 7.60619 13.3935 9.8 16.0997 9.8Z" fill="#44A64B"/>
<path d="M25.8999 12.5999C27.8328 12.5999 29.3998 11.0329 29.3998 9.09994C29.3998 7.16696 27.8328 5.59998 25.8999 5.59998C23.9669 5.59998 22.3999 7.16696 22.3999 9.09994C22.3999 11.0329 23.9669 12.5999 25.8999 12.5999Z" fill="#44A64B"/>
<path d="M6.39938 12.5999C8.33235 12.5999 9.89934 11.0329 9.89934 9.09994C9.89934 7.16696 8.33235 5.59998 6.39938 5.59998C4.4664 5.59998 2.89941 7.16696 2.89941 9.09994C2.89941 11.0329 4.4664 12.5999 6.39938 12.5999Z" fill="#44A64B"/>
<path d="M16.1 11.2C11.0824 11.2 7 15.2823 7 20.2999C7 20.6863 7.31362 20.9999 7.70002 20.9999H24.4999C24.8863 20.9999 25.2 20.6863 25.2 20.2999C25.2 15.2823 21.1176 11.2 16.1 11.2Z" fill="#1B25B9"/>
<path d="M7.60616 14.1512C7.17776 14.0602 6.74234 14 6.29997 14C2.82659 14 0 16.8266 0 20.3C0 20.6864 0.31362 21 0.700018 21H5.72877C5.65035 20.7802 5.59995 20.5464 5.59995 20.3C5.59995 18.0026 6.35037 15.8816 7.60616 14.1512Z" fill="#1B25B9"/>
<path d="M25.8999 14C25.4576 14 25.0221 14.0602 24.5938 14.1512C25.8495 15.8816 26.6 18.0026 26.6 20.3C26.6 20.5464 26.5496 20.7801 26.4711 21H31.4999C31.8863 21 32.1999 20.6864 32.1999 20.3C32.1999 16.8266 29.3733 14 25.8999 14Z" fill="#1B25B9"/>
</svg>
