<svg width="35" height="39" viewBox="0 0 35 39" fill="none" xmlns="http://www.w3.org/2000/svg">
<path d="M19.8198 7.04817C19.8198 3.99944 21.5378 1.34471 24.0562 0H0V38.1277H27.5641V15.0286C23.2722 14.9012 19.8198 11.3704 19.8198 7.04817ZM22.5176 25.788V28.0301H5.04655V25.788H22.5176ZM5.04655 23.0751V20.833H22.5176V23.0751H5.04655ZM22.5176 30.7429V32.985H5.04655V30.7429H22.5176ZM22.5176 15.878V18.1201H5.04655V15.878H22.5176ZM9.5654 9.72615V11.9682H5.04655V9.72615H9.5654ZM5.04655 6.85685V4.61481H13.2961V6.85685H5.04655Z" fill="#44A64B"/>
<path d="M28.3351 0C27.0169 0 25.7283 0.390889 24.6322 1.12324C23.5362 1.85558 22.682 2.8965 22.1775 4.11435C21.6731 5.3322 21.5411 6.67229 21.7982 7.96515C22.0554 9.25801 22.6902 10.4456 23.6223 11.3777C24.5544 12.3098 25.7419 12.9446 27.0348 13.2017C28.3277 13.4589 29.6678 13.3269 30.8856 12.8224C32.1035 12.318 33.1444 11.4637 33.8767 10.3677C34.6091 9.27167 35 7.98308 35 6.66489C35 5.78965 34.8276 4.92297 34.4926 4.11435C34.1577 3.30573 33.6667 2.57099 33.0479 1.9521C32.429 1.33321 31.6942 0.842277 30.8856 0.507335C30.077 0.172393 29.2103 0 28.3351 0ZM30.1412 7.52466C30.2037 7.58662 30.2533 7.66034 30.2871 7.74155C30.321 7.82277 30.3384 7.90989 30.3384 7.99787C30.3384 8.08585 30.321 8.17297 30.2871 8.25419C30.2533 8.3354 30.2037 8.40912 30.1412 8.47108C30.0793 8.53355 30.0056 8.58313 29.9244 8.61697C29.8431 8.6508 29.756 8.66822 29.668 8.66822C29.5801 8.66822 29.4929 8.6508 29.4117 8.61697C29.3305 8.58313 29.2568 8.53355 29.1948 8.47108L28.3351 7.60464L27.4753 8.47108C27.4133 8.53355 27.3396 8.58313 27.2584 8.61697C27.1772 8.6508 27.0901 8.66822 27.0021 8.66822C26.9141 8.66822 26.827 8.6508 26.7458 8.61697C26.6645 8.58313 26.5908 8.53355 26.5289 8.47108C26.4664 8.40912 26.4168 8.3354 26.383 8.25419C26.3492 8.17297 26.3317 8.08585 26.3317 7.99787C26.3317 7.90989 26.3492 7.82277 26.383 7.74155C26.4168 7.66034 26.4664 7.58662 26.5289 7.52466L27.3953 6.66489L26.5289 5.80512C26.4034 5.67962 26.3329 5.5094 26.3329 5.33191C26.3329 5.15443 26.4034 4.98421 26.5289 4.85871C26.6544 4.7332 26.8246 4.6627 27.0021 4.6627C27.1796 4.6627 27.3498 4.7332 27.4753 4.85871L28.3351 5.72514L29.1948 4.85871C29.3203 4.7332 29.4906 4.6627 29.668 4.6627C29.8455 4.6627 30.0157 4.7332 30.1412 4.85871C30.2668 4.98421 30.3373 5.15443 30.3373 5.33191C30.3373 5.5094 30.2668 5.67962 30.1412 5.80512L29.2748 6.66489L30.1412 7.52466Z" fill="#1B25B9"/>
</svg>
