<svg width="41" height="39" viewBox="0 0 41 39" fill="none" xmlns="http://www.w3.org/2000/svg">
<path d="M15.9462 38.4138C16.4941 39.0433 17.5072 39.188 18.2117 38.7385L35.4426 27.7084C36.1466 27.2582 36.1703 26.4929 35.4987 25.9985L34.1128 24.9816L25.216 31.0306L24.8507 31.0203C17.1136 30.8011 13.878 26.9128 13.4592 26.3645L4.82221 16.5789L0.683389 18.6621C-0.0619403 19.037 -0.222883 19.852 0.325873 20.4816L15.9462 38.4138Z" fill="#44A64B"/>
<path d="M13.7035 24.7405C14.0396 25.1884 17.1524 29.0412 24.8109 29.2583L25.0552 29.2649L39.8321 19.2195C40.3981 18.8349 40.688 18.3044 40.626 17.763C40.5641 17.2199 40.1583 16.765 39.5125 16.5156C31.7064 13.5007 27.4882 7.77123 24.6973 3.98071C23.8228 2.79255 23.1321 1.85428 22.4871 1.20821C21.6858 0.404951 20.2416 0.142571 19.2003 0.688297L3.4352 9.47445C2.87614 9.76713 2.49463 10.2626 2.38883 10.8337C2.28291 11.4053 2.46215 12.0037 2.87917 12.4775L13.7035 24.7405ZM4.15326 10.8034L19.9179 2.01813C20.0625 1.94178 20.2429 1.90264 20.4385 1.90264C20.8119 1.90264 21.186 2.04552 21.4163 2.2753C21.98 2.84212 22.6752 3.78511 23.4789 4.8762C26.1982 8.56964 30.75 14.7511 38.9671 17.9258C38.9841 17.9324 39.0002 17.9395 39.0144 17.9454C39.0041 17.9531 38.9937 17.9613 38.9805 17.9694L24.6117 27.7388C17.6337 27.4612 14.931 23.86 14.9066 23.8254L4.01267 11.4769C3.90239 11.3522 3.85331 11.2216 3.87427 11.1082C3.89572 10.9957 3.98868 10.8906 4.15326 10.8034Z" fill="#1B25B9"/>
<path d="M16.1645 23.4226C17.6167 24.5296 20.4506 26.1692 24.5605 26.2468C24.6195 26.2504 22.4301 25.945 21.7674 24.4603C21.4278 23.6971 20.7929 23.1784 19.9646 23.2884C18.9657 23.4226 17.6093 23.4751 16.3814 23.0906C15.5841 22.8412 15.5004 22.9164 16.1645 23.4226Z" fill="#1B25B9"/>
</svg>
