<svg width="37" height="37" viewBox="0 0 37 37" fill="none" xmlns="http://www.w3.org/2000/svg">
<g clip-path="url(#clip0)">
<path d="M10.1895 7.22656H21.0293C21.6279 7.22656 22.1133 6.74123 22.1133 6.14258V4.33594C22.1133 3.53769 21.4662 2.89062 20.668 2.89062H18.5C18.5 1.29421 17.2058 0 15.6094 0C14.013 0 12.7188 1.29421 12.7188 2.89062H10.5508C9.75254 2.89062 9.10547 3.53769 9.10547 4.33594V6.14258C9.10547 6.74123 9.5908 7.22656 10.1895 7.22656Z" fill="#44A64B"/>
<path d="M20.5872 31.2188H14.8867C14.2881 31.2188 13.8027 30.7334 13.8027 30.1348C13.8027 29.5361 14.2881 29.0508 14.8867 29.0508H20.311C20.3082 28.9486 20.3066 28.8462 20.3066 28.7435V26.8828H14.8867C14.2881 26.8828 13.8027 26.3975 13.8027 25.7988C13.8027 25.2002 14.2881 24.7148 14.8867 24.7148H20.4179C20.6774 23.7515 21.3736 22.9372 22.3163 22.5469H14.8867C14.2881 22.5469 13.8027 22.0615 13.8027 21.4629C13.8027 20.8642 14.2881 20.3789 14.8867 20.3789H22.8359C23.4346 20.3789 23.9199 20.8642 23.9199 21.4629C23.9199 21.6569 23.8683 21.8385 23.7791 21.9961L27.114 20.7455C27.4807 20.6081 27.8648 20.5385 28.2559 20.5385V8.31055C28.2559 6.51742 26.797 5.05859 25.0039 5.05859H24.2812V6.14258C24.2812 7.9357 22.8224 9.39453 21.0293 9.39453H10.1895C8.39633 9.39453 6.9375 7.9357 6.9375 6.14258V5.05859H6.21484C4.42172 5.05859 2.96289 6.51742 2.96289 8.31055V33.748C2.96289 35.5412 4.42172 37 6.21484 37H23.9994C22.2984 35.4784 21.1007 33.4588 20.5872 31.2188ZM14.8867 11.707H22.8359C23.4346 11.707 23.9199 12.1924 23.9199 12.791C23.9199 13.3897 23.4346 13.875 22.8359 13.875H14.8867C14.2881 13.875 13.8027 13.3897 13.8027 12.791C13.8027 12.1924 14.2881 11.707 14.8867 11.707ZM14.8867 16.043H22.8359C23.4346 16.043 23.9199 16.5283 23.9199 17.127C23.9199 17.7256 23.4346 18.2109 22.8359 18.2109H14.8867C14.2881 18.2109 13.8027 17.7256 13.8027 17.127C13.8027 16.5283 14.2881 16.043 14.8867 16.043ZM10.5508 31.2188H8.38281C7.78416 31.2188 7.29883 30.7334 7.29883 30.1348C7.29883 29.5361 7.78416 29.0508 8.38281 29.0508H10.5508C11.1494 29.0508 11.6348 29.5361 11.6348 30.1348C11.6348 30.7334 11.1494 31.2188 10.5508 31.2188ZM10.5508 26.8828H8.38281C7.78416 26.8828 7.29883 26.3975 7.29883 25.7988C7.29883 25.2002 7.78416 24.7148 8.38281 24.7148H10.5508C11.1494 24.7148 11.6348 25.2002 11.6348 25.7988C11.6348 26.3975 11.1494 26.8828 10.5508 26.8828ZM10.5508 22.5469H8.38281C7.78416 22.5469 7.29883 22.0615 7.29883 21.4629C7.29883 20.8642 7.78416 20.3789 8.38281 20.3789H10.5508C11.1494 20.3789 11.6348 20.8642 11.6348 21.4629C11.6348 22.0615 11.1494 22.5469 10.5508 22.5469ZM10.5508 18.2109H8.38281C7.78416 18.2109 7.29883 17.7256 7.29883 17.127C7.29883 16.5283 7.78416 16.043 8.38281 16.043H10.5508C11.1494 16.043 11.6348 16.5283 11.6348 17.127C11.6348 17.7256 11.1494 18.2109 10.5508 18.2109ZM10.5508 13.875H8.38281C7.78416 13.875 7.29883 13.3897 7.29883 12.791C7.29883 12.1924 7.78416 11.707 8.38281 11.707H10.5508C11.1494 11.707 11.6348 12.1924 11.6348 12.791C11.6348 13.3897 11.1494 13.875 10.5508 13.875Z" fill="#44A64B"/>
<path d="M33.3337 24.537L28.6365 22.7755C28.3911 22.6835 28.1207 22.6835 27.8752 22.7755L23.178 24.537C22.7549 24.6956 22.4746 25.1001 22.4746 25.552V28.7436C22.4746 32.2999 24.5869 35.499 27.8194 36.9091C28.0977 37.0305 28.414 37.0305 28.6922 36.9091C31.9248 35.4989 34.0371 32.2999 34.0371 28.7436V25.552C34.0371 25.1001 33.7568 24.6956 33.3337 24.537ZM31.3218 29.0929L28.2559 32.1588C27.8325 32.5821 27.1462 32.5821 26.7229 32.1588L25.1899 30.6258C24.7666 30.2025 24.7666 29.5162 25.1899 29.0929C25.6133 28.6695 26.2996 28.6695 26.7229 29.0929L27.4893 29.8593L29.7888 27.5599C30.2121 27.1366 30.8984 27.1366 31.3217 27.5599C31.7451 27.9832 31.7451 28.6695 31.3218 29.0929Z" fill="#1B25B9"/>
</g>
<defs>
<clipPath id="clip0">
<rect width="37" height="37" fill="white"/>
</clipPath>
</defs>
</svg>
