<svg width="36" height="36" viewBox="0 0 36 36" fill="none" xmlns="http://www.w3.org/2000/svg">
<path d="M5.34375 16.875C6.19464 16.875 6.96478 16.5336 7.53387 15.9854L10.6559 17.5463C10.6403 17.6734 10.6172 17.7984 10.6172 17.9297C10.6172 19.6743 12.0366 21.0938 13.7812 21.0938C15.5259 21.0938 16.9453 19.6743 16.9453 17.9297C16.9453 17.4427 16.8256 16.9868 16.6281 16.5742L20.8633 12.339C21.2758 12.5365 21.7318 12.6562 22.2188 12.6562C23.9634 12.6562 25.3828 11.2368 25.3828 9.49219C25.3828 9.1637 25.3183 8.85306 25.2249 8.55505L28.9048 5.79584C29.4068 6.1312 30.0086 6.32812 30.6562 6.32812C32.4009 6.32812 33.8203 4.90869 33.8203 3.16406C33.8203 1.41943 32.4009 0 30.6562 0C28.9116 0 27.4922 1.41943 27.4922 3.16406C27.4922 3.49255 27.5567 3.80319 27.6501 4.1012L23.9702 6.86041C23.4682 6.52505 22.8664 6.32812 22.2188 6.32812C20.4741 6.32812 19.0547 7.74756 19.0547 9.49219C19.0547 9.97916 19.1744 10.4351 19.3719 10.8476L15.1367 15.0829C14.7242 14.8854 14.2682 14.7656 13.7812 14.7656C12.9304 14.7656 12.1602 15.107 11.5911 15.6552L8.46909 14.0944C8.48474 13.9672 8.50781 13.8422 8.50781 13.7109C8.50781 11.9663 7.08838 10.5469 5.34375 10.5469C3.59912 10.5469 2.17969 11.9663 2.17969 13.7109C2.17969 15.4556 3.59912 16.875 5.34375 16.875Z" fill="#1B25B9"/>
<path d="M34.9453 33.8906H33.8203V11.6016C33.8203 11.0187 33.3484 10.5469 32.7656 10.5469H28.5469C27.9641 10.5469 27.4922 11.0187 27.4922 11.6016V33.8906H25.3828V17.9297C25.3828 17.3469 24.9109 16.875 24.3281 16.875H20.1094C19.5266 16.875 19.0547 17.3469 19.0547 17.9297V33.8906H16.9453V26.3672C16.9453 25.7844 16.4734 25.3125 15.8906 25.3125H11.6719C11.0891 25.3125 10.6172 25.7844 10.6172 26.3672V33.8906H8.50781V22.1484C8.50781 21.5656 8.03595 21.0938 7.45312 21.0938H3.23438C2.65155 21.0938 2.17969 21.5656 2.17969 22.1484V33.8906H1.05469C0.471863 33.8906 0 34.3625 0 34.9453C0 35.5281 0.471863 36 1.05469 36H34.9453C35.5281 36 36 35.5281 36 34.9453C36 34.3625 35.5281 33.8906 34.9453 33.8906Z" fill="#44A64B"/>
</svg>
