<svg width="40" height="40" viewBox="0 0 40 40" fill="none" xmlns="http://www.w3.org/2000/svg">
<path d="M0 18.5186H4.44444V21.4815H0V18.5186Z" fill="#1B25B9"/>
<path d="M35.5555 18.5186H40V21.4815H35.5555V18.5186Z" fill="#1B25B9"/>
<path d="M29.6296 8.64197L33.0864 5.18518L34.8148 6.91358L31.358 10.3704L29.6296 8.64197Z" fill="#1B25B9"/>
<path d="M8.64197 10.3704L5.18518 6.91358L6.91358 5.18518L10.3704 8.64197L8.64197 10.3704Z" fill="#1B25B9"/>
<path d="M18.5186 0H21.4815V4.44444H18.5186V0Z" fill="#1B25B9"/>
<path d="M9.69691 35.5555C8.43229 35.5555 7.40735 36.5503 7.40735 37.7778V40H32.5925V37.7778C32.5925 36.5503 31.5676 35.5555 30.303 35.5555H9.69691Z" fill="#1B25B9"/>
<path d="M9.62964 20.2609V33.3333H30.3704V20.2609C30.3704 14.3986 25.7184 9.62964 20 9.62964C14.2816 9.62964 9.62964 14.3986 9.62964 20.2609ZM18.8477 16.7171H21.1523V23.8046H18.8477V16.7171ZM18.8477 26.1671H21.1523V28.5296H18.8477V26.1671Z" fill="#44A64B"/>
</svg>
