<svg width="38" height="42" viewBox="0 0 38 42" fill="none" xmlns="http://www.w3.org/2000/svg">
<path d="M19.0231 0.392212C13.4219 0.392212 8.86499 4.94914 8.86499 10.5503C8.86499 16.1515 13.4219 20.7084 19.0231 20.7084C24.6243 20.7084 29.1812 16.1515 29.1812 10.5503C29.1812 4.94914 24.6243 0.392212 19.0231 0.392212Z" fill="#44A64B"/>
<path d="M19.1532 23.1464H18.8372C17.3227 23.1464 15.8273 23.3616 14.3926 23.7749L19.0248 30.9378L23.6517 23.7831C22.2011 23.3644 20.6874 23.1464 19.1532 23.1464Z" fill="#44A64B"/>
<path d="M35.0905 36.7957C34.2901 31.5317 30.9171 26.9501 25.9892 24.6579L20.2421 33.5449V41.9998H35.8817L35.0905 36.7957Z" fill="#44A64B"/>
<path d="M12.055 24.6498C7.10224 26.9561 3.75112 31.5642 2.9557 36.7957L2.16443 41.9998H17.8041V33.5398L12.055 24.6498Z" fill="#44A64B"/>
<rect y="32.139" width="38" height="7.93671" fill="#1B25B9"/>
<path d="M13.2547 33.6461V38.5831H12.4587V36.4236H10.1756V38.5831H9.37964V33.6461H10.1756V35.763H12.4587V33.6461H13.2547Z" fill="white"/>
<path d="M15.0985 34.2997V35.7488H16.7742V36.4094H15.0985V37.9225H16.9836V38.5831H14.3025V33.639H16.9836V34.2997H15.0985Z" fill="white"/>
<path d="M18.7599 37.9296H20.4007V38.5831H17.964V33.6461H18.7599V37.9296Z" fill="white"/>
<path d="M21.8623 37.9296H23.5031V38.5831H21.0664V33.6461H21.8623V37.9296Z" fill="white"/>
<path d="M26.382 38.6328C25.9305 38.6328 25.5139 38.5263 25.1322 38.3132C24.7552 38.0953 24.455 37.7946 24.2316 37.411C24.0128 37.0227 23.9034 36.587 23.9034 36.104C23.9034 35.6209 24.0128 35.1876 24.2316 34.804C24.455 34.4204 24.7552 34.1221 25.1322 33.909C25.5139 33.6911 25.9305 33.5822 26.382 33.5822C26.8382 33.5822 27.2548 33.6911 27.6318 33.909C28.0135 34.1221 28.3137 34.4204 28.5325 34.804C28.7513 35.1876 28.8607 35.6209 28.8607 36.104C28.8607 36.587 28.7513 37.0227 28.5325 37.411C28.3137 37.7946 28.0135 38.0953 27.6318 38.3132C27.2548 38.5263 26.8382 38.6328 26.382 38.6328ZM26.382 37.9296C26.7032 37.9296 26.9895 37.8562 27.2408 37.7094C27.4922 37.5578 27.6877 37.3447 27.8273 37.0701C27.9716 36.7907 28.0438 36.4686 28.0438 36.104C28.0438 35.7393 27.9716 35.4197 27.8273 35.145C27.6877 34.8703 27.4922 34.6596 27.2408 34.5128C26.9895 34.366 26.7032 34.2926 26.382 34.2926C26.0609 34.2926 25.7746 34.366 25.5232 34.5128C25.2719 34.6596 25.0741 34.8703 24.9298 35.145C24.7901 35.4197 24.7203 35.7393 24.7203 36.104C24.7203 36.4686 24.7901 36.7907 24.9298 37.0701C25.0741 37.3447 25.2719 37.5578 25.5232 37.7094C25.7746 37.8562 26.0609 37.9296 26.382 37.9296Z" fill="white"/>
</svg>
