<svg width="55" height="41" viewBox="0 0 55 41" fill="none" xmlns="http://www.w3.org/2000/svg">
<path d="M22.666 35.5566C22.666 38.2222 24.8344 40.3906 27.5 40.3906C30.1656 40.3906 32.334 38.2222 32.334 35.5566C32.334 33.4587 30.9828 31.6869 29.1113 31.0195V25.6196C30.2057 25.4745 31.272 25.2413 32.2659 24.8436C32.2974 24.6213 32.334 24.4006 32.334 24.1699C32.334 21.5044 30.1656 19.3359 27.5 19.3359C24.8344 19.3359 22.666 21.5044 22.666 24.1699C22.666 24.4007 22.7026 24.6213 22.7341 24.8436C23.728 25.2412 24.7943 25.4743 25.8887 25.6196V31.0195C24.0172 31.6869 22.666 33.4587 22.666 35.5566Z" fill="#1B25B9"/>
<path d="M50.0586 8.05664C47.9606 8.05664 46.1888 9.40779 45.5214 11.2793H40.2283C39.428 4.92701 34.0702 0 27.5 0C20.9298 0 15.572 4.92701 14.7717 11.2793H9.47858C8.81117 9.40779 7.03936 8.05664 4.94141 8.05664C2.27584 8.05664 0 10.2251 0 12.8906C0 15.5562 2.27584 17.7246 4.94141 17.7246C7.03936 17.7246 8.81117 16.3735 9.47858 14.502H14.7445C15.0349 16.7521 15.8901 18.8396 17.2197 20.5605L13.3975 24.3825C11.6464 23.659 9.55614 23.9998 8.12947 25.424C6.24433 27.3091 6.24433 30.3744 8.12947 32.2595C10.0132 34.1462 13.0872 34.1452 14.9682 32.2579C16.5024 30.7225 16.7177 28.432 15.7508 26.6055L19.6367 22.7197C20.0755 19.4308 23.266 16.1133 27.5 16.1133C24.8251 16.1133 22.666 13.954 22.666 11.2793C22.666 8.60438 24.8251 6.44531 27.5 6.44531C30.1749 6.44531 32.334 8.60438 32.334 11.2793C32.334 13.954 30.1749 16.1133 27.5 16.1133C31.1416 16.1133 34.6222 18.6268 35.4278 22.9453L39.1855 26.7029C38.2816 28.5126 38.5261 30.7509 40.0318 32.258V32.2597C41.9239 34.1486 44.984 34.143 46.8705 32.2597C48.7557 30.3745 48.7557 27.3092 46.8705 25.4241C45.4203 23.9701 43.2769 23.6629 41.5045 24.4459L37.7157 20.6571C39.0773 18.903 39.9585 16.7983 40.2537 14.502H45.5213C46.1887 16.3735 47.9605 17.7246 50.0585 17.7246C52.7241 17.7246 54.9999 15.5562 54.9999 12.8906C54.9999 10.2251 52.7242 8.05664 50.0586 8.05664Z" fill="#44A64B"/>
<path d="M27.5 12.8906C28.3899 12.8906 29.1113 12.1692 29.1113 11.2793C29.1113 10.3894 28.3899 9.66797 27.5 9.66797C26.6101 9.66797 25.8887 10.3894 25.8887 11.2793C25.8887 12.1692 26.6101 12.8906 27.5 12.8906Z" fill="#1B25B9"/>
</svg>
