<svg width="39" height="39" viewBox="0 0 39 39" fill="none" xmlns="http://www.w3.org/2000/svg">
<path d="M3.88477 23.6133H6.93164V26.6602H9.2168V2.28516H13.7871V4.57206C13.1043 4.96724 12.6445 5.70504 12.6445 6.55078V8.07422C12.6445 8.49492 12.9856 8.83594 13.4062 8.83594H16.4531C16.8738 8.83594 17.2148 8.49492 17.2148 8.07422V6.55078C17.2148 5.70512 16.7551 4.96724 16.0723 4.57206V2.28516H22.9277V4.57206C22.2449 4.96724 21.7852 5.70504 21.7852 6.55078V8.07422C21.7852 8.49492 22.1262 8.83594 22.5469 8.83594H25.5938C26.0144 8.83594 26.3555 8.49492 26.3555 8.07422V6.55078C26.3555 5.70512 25.8957 4.96724 25.2129 4.57206V2.28516H29.7832V26.6602H32.0684V23.6133H35.1152V26.6602H37.4004V1.14258C37.4004 0.51157 36.8888 0 36.2578 0H2.74219C2.11118 0 1.59961 0.51157 1.59961 1.14258V26.6602H3.88477V23.6133ZM32.0684 2.28516H35.1152V5.33203H32.0684V2.28516ZM32.0684 7.61719H35.1152V10.6641H32.0684V7.61719ZM32.0684 12.9492H35.1152V15.9961H32.0684V12.9492ZM32.0684 18.2812H35.1152V21.3281H32.0684V18.2812ZM3.88477 2.28516H6.93164V5.33203H3.88477V2.28516ZM3.88477 7.61719H6.93164V10.6641H3.88477V7.61719ZM3.88477 12.9492H6.93164V15.9961H3.88477V12.9492ZM3.88477 18.2812H6.93164V21.3281H3.88477V18.2812Z" fill="#44A64B"/>
<path d="M11.502 18.6621H27.498V26.6602H11.502V18.6621Z" fill="#1B25B9"/>
<path d="M25.7441 28.9453H13.2558L10.8557 37.5504C10.6525 38.2788 11.2001 39 11.9562 39H27.0436C27.7996 39 28.3472 38.2787 28.1441 37.5504L25.7441 28.9453Z" fill="#1B25B9"/>
<path d="M37.4765 28.9453H28.1165L30.241 36.5625H37.8574C38.4884 36.5625 39 36.0509 39 35.4199V30.4688C39 29.6274 38.3179 28.9453 37.4765 28.9453Z" fill="#1B25B9"/>
<path d="M1.52344 28.9453C0.682043 28.9453 0 29.6274 0 30.4688V35.4199C0 36.0509 0.51157 36.5625 1.14258 36.5625H8.75893L10.8835 28.9453H1.52344Z" fill="#1B25B9"/>
</svg>
