<svg width="41" height="40" viewBox="0 0 41 40" fill="none" xmlns="http://www.w3.org/2000/svg">
<path d="M21.8789 2.84107L3.4254 0.0369439C2.56905 -0.0973857 1.69591 0.137691 1.04105 0.691801C0.386198 1.2627 0 2.08547 0 2.94182V38.3209C0 39.2444 0.755604 40 1.67912 40H7.13626V31.1846C7.13626 29.5559 8.44597 28.2462 10.0747 28.2462H14.2725C15.9013 28.2462 17.211 29.5559 17.211 31.1846V40H24.3472V5.74595C24.3472 4.30191 23.3062 3.07615 21.8789 2.84107ZM9.23516 24.4681H6.71648C6.02132 24.4681 5.45714 23.904 5.45714 23.2088C5.45714 22.5136 6.02132 21.9495 6.71648 21.9495H9.23516C9.93032 21.9495 10.4945 22.5136 10.4945 23.2088C10.4945 23.904 9.93032 24.4681 9.23516 24.4681ZM9.23516 19.4308H6.71648C6.02132 19.4308 5.45714 18.8666 5.45714 18.1714C5.45714 17.4763 6.02132 16.9121 6.71648 16.9121H9.23516C9.93032 16.9121 10.4945 17.4763 10.4945 18.1714C10.4945 18.8666 9.93032 19.4308 9.23516 19.4308ZM9.23516 14.3934H6.71648C6.02132 14.3934 5.45714 13.8292 5.45714 13.1341C5.45714 12.4389 6.02132 11.8747 6.71648 11.8747H9.23516C9.93032 11.8747 10.4945 12.4389 10.4945 13.1341C10.4945 13.8292 9.93032 14.3934 9.23516 14.3934ZM9.23516 9.35606H6.71648C6.02132 9.35606 5.45714 8.79187 5.45714 8.09672C5.45714 7.40156 6.02132 6.83738 6.71648 6.83738H9.23516C9.93032 6.83738 10.4945 7.40156 10.4945 8.09672C10.4945 8.79187 9.93032 9.35606 9.23516 9.35606ZM17.6308 24.4681H15.1121C14.4169 24.4681 13.8527 23.904 13.8527 23.2088C13.8527 22.5136 14.4169 21.9495 15.1121 21.9495H17.6308C18.3259 21.9495 18.8901 22.5136 18.8901 23.2088C18.8901 23.904 18.3259 24.4681 17.6308 24.4681ZM17.6308 19.4308H15.1121C14.4169 19.4308 13.8527 18.8666 13.8527 18.1714C13.8527 17.4763 14.4169 16.9121 15.1121 16.9121H17.6308C18.3259 16.9121 18.8901 17.4763 18.8901 18.1714C18.8901 18.8666 18.3259 19.4308 17.6308 19.4308ZM17.6308 14.3934H15.1121C14.4169 14.3934 13.8527 13.8292 13.8527 13.1341C13.8527 12.4389 14.4169 11.8747 15.1121 11.8747H17.6308C18.3259 11.8747 18.8901 12.4389 18.8901 13.1341C18.8901 13.8292 18.3259 14.3934 17.6308 14.3934ZM17.6308 9.35606H15.1121C14.4169 9.35606 13.8527 8.79187 13.8527 8.09672C13.8527 7.40156 14.4169 6.83738 15.1121 6.83738H17.6308C18.3259 6.83738 18.8901 7.40156 18.8901 8.09672C18.8901 8.79187 18.3259 9.35606 17.6308 9.35606Z" fill="#1B25B9"/>
<path d="M37.9817 17.9062L26.0264 15.4026V40H37.3604C38.9808 40 40.2989 38.6819 40.2989 37.0616V20.7775C40.2989 19.3905 39.3535 18.2101 37.9817 17.9062ZM34.0022 34.9627H31.4835C30.7884 34.9627 30.2242 34.3985 30.2242 33.7033C30.2242 33.0082 30.7884 32.444 31.4835 32.444H34.0022C34.6973 32.444 35.2615 33.0082 35.2615 33.7033C35.2615 34.3985 34.6973 34.9627 34.0022 34.9627ZM34.0022 29.9253H31.4835C30.7884 29.9253 30.2242 29.3611 30.2242 28.666C30.2242 27.9708 30.7884 27.4066 31.4835 27.4066H34.0022C34.6973 27.4066 35.2615 27.9708 35.2615 28.666C35.2615 29.3611 34.6973 29.9253 34.0022 29.9253ZM34.0022 24.8879H31.4835C30.7884 24.8879 30.2242 24.3238 30.2242 23.6286C30.2242 22.9334 30.7884 22.3693 31.4835 22.3693H34.0022C34.6973 22.3693 35.2615 22.9334 35.2615 23.6286C35.2615 24.3238 34.6973 24.8879 34.0022 24.8879Z" fill="#44A64B"/>
</svg>
