<svg width="37" height="40" viewBox="0 0 37 40" fill="none" xmlns="http://www.w3.org/2000/svg">
<path d="M36.1621 26.1899C35.8448 25.7724 35.4166 25.4464 34.929 25.2533C34.0759 24.9154 33.1499 24.9857 32.3714 25.4352L27.2314 28.4027C27.2023 28.8363 27.12 29.2742 26.9762 29.7082C26.0927 32.3737 23.2399 33.8505 20.5276 33.1237L15.4468 31.7623C14.8216 31.5948 14.4506 30.9522 14.6181 30.327C14.7856 29.7019 15.4282 29.3309 16.0533 29.4984L21.2117 30.8806C22.7746 31.2993 24.3811 30.3719 24.7999 28.809C25.2186 27.2461 24.2911 25.6396 22.7283 25.2209L14.8528 23.1106C13.341 22.7056 11.762 22.9134 10.4066 23.696L0.586134 29.3659C0.0256656 29.6895 -0.166444 30.4062 0.157228 30.9667L5.03426 39.414C5.18965 39.6832 5.44558 39.8795 5.74582 39.96C6.04605 40.0405 6.3659 39.9984 6.63504 39.8429L11.0639 37.2859L20.5375 37.897C21.6957 37.9716 22.8391 37.7044 23.8442 37.1241L35.3011 30.5095C36.8085 29.6391 37.2501 27.622 36.1621 26.1899Z" fill="#1B25B9"/>
<path d="M10.5701 18.7501H26.1951C26.8422 18.7501 27.3669 18.2254 27.3669 17.5782C27.3669 14.4678 25.7779 11.7218 23.3692 10.1085C22.0714 11.3476 20.3143 12.1095 18.3826 12.1095C16.4508 12.1095 14.6937 11.3476 13.3959 10.1085C10.9873 11.7218 9.39819 14.4678 9.39819 17.5782C9.39819 18.2254 9.92288 18.7501 10.5701 18.7501Z" fill="#44A64B"/>
<path d="M18.3826 9.76562C21.0793 9.76562 23.2654 7.57951 23.2654 4.88281C23.2654 2.18611 21.0793 0 18.3826 0C15.6859 0 13.4998 2.18611 13.4998 4.88281C13.4998 7.57951 15.6859 9.76562 18.3826 9.76562Z" fill="#44A64B"/>
</svg>
