<svg width="41" height="41" viewBox="0 0 41 41" fill="none" xmlns="http://www.w3.org/2000/svg">
<g clip-path="url(#clip0)">
<path d="M1.20117 40.9999H22.9824C23.6459 40.9999 24.1836 40.4622 24.1836 39.7988V38.5175C24.1836 37.1906 23.1082 36.1152 21.7812 36.1152V34.6791C21.7812 32.7775 20.2341 31.2304 18.3326 31.2304H5.85102C3.94948 31.2304 2.40234 32.7775 2.40234 34.6791V36.1152C1.07542 36.1152 0 37.1906 0 38.5175V39.7988C0 40.4619 0.538025 40.9999 1.20117 40.9999Z" fill="#1B25B9"/>
<path d="M15.0334 26.4533C15.8317 27.5128 17.3382 27.7245 18.3976 26.9259C19.4574 26.1277 19.6689 24.6212 18.8706 23.5614L11.6417 13.9686C10.8431 12.9088 9.33693 12.6974 8.27746 13.4956C7.21767 14.2942 7.0059 15.8004 7.80449 16.8602L15.0334 26.4533Z" fill="#44A64B"/>
<path d="M32.3006 13.4412C33.0992 14.5007 34.6053 14.7124 35.6651 13.9139C36.7246 13.1156 36.9364 11.6094 36.1378 10.5496L28.9088 0.956838C28.1106 -0.102946 26.6041 -0.314715 25.5446 0.483876C24.4851 1.28247 24.2734 2.78863 25.072 3.84841L32.3006 13.4412Z" fill="#44A64B"/>
<path d="M27.0313 20.4199C28.8068 19.0821 30.1397 17.4207 30.9733 15.6715L22.562 4.5094C20.6507 4.82877 18.6866 5.65176 16.9108 6.98994C15.1354 8.32781 13.8025 9.98912 12.9689 11.738L21.3802 22.9008C23.2914 22.5814 25.2555 21.7581 27.0313 20.4199Z" fill="#44A64B"/>
<path d="M30.2749 20.7327C29.7156 21.3026 29.1265 21.8491 28.4772 22.3386C27.8275 22.8278 27.1396 23.2436 26.438 23.6242L28.0042 25.7028L31.8414 22.8116L30.2749 20.7327Z" fill="#44A64B"/>
<path d="M33.2871 24.73L29.45 27.6213L36.6789 37.2144C37.4775 38.2742 38.9836 38.4857 40.0431 37.6874C41.1029 36.8888 41.3144 35.3826 40.5161 34.3228L33.2871 24.73Z" fill="#44A64B"/>
</g>
<defs>
<clipPath id="clip0">
<rect width="41" height="41" fill="white"/>
</clipPath>
</defs>
</svg>
