<svg width="37" height="37" viewBox="0 0 37 37" fill="none" xmlns="http://www.w3.org/2000/svg">
<g clip-path="url(#clip0)">
<path d="M6.16663 10.4062C6.16663 6.36862 9.45192 3.08333 13.4895 3.08333H27.5696C27.0624 1.30887 25.4452 0 23.5104 0H5.78121C3.4425 0 1.54163 1.90087 1.54163 4.23958V28.1354C1.54163 30.4741 3.4425 32.375 5.78121 32.375H6.16663V10.4062Z" fill="#1B25B9"/>
<path d="M31.2188 6.16663H13.4896C11.1509 6.16663 9.25 8.0675 9.25 10.4062V32.7604C9.25 35.0991 11.1509 37 13.4896 37H31.2188C33.5575 37 35.4583 35.0991 35.4583 32.7604V10.4062C35.4583 8.0675 33.5575 6.16663 31.2188 6.16663ZM28.1354 32.375H16.5729C15.9347 32.375 15.4167 31.857 15.4167 31.2187C15.4167 30.5805 15.9347 30.0625 16.5729 30.0625H28.1354C28.7737 30.0625 29.2917 30.5805 29.2917 31.2187C29.2917 31.857 28.7737 32.375 28.1354 32.375ZM28.1354 26.2083H16.5729C15.9347 26.2083 15.4167 25.6903 15.4167 25.052C15.4167 24.4138 15.9347 23.8958 16.5729 23.8958H28.1354C28.7737 23.8958 29.2917 24.4138 29.2917 25.052C29.2917 25.6903 28.7737 26.2083 28.1354 26.2083ZM28.1354 20.8125H16.5729C15.9347 20.8125 15.4167 20.2945 15.4167 19.6562C15.4167 19.018 15.9347 18.5 16.5729 18.5H28.1354C28.7737 18.5 29.2917 19.018 29.2917 19.6562C29.2917 20.2945 28.7737 20.8125 28.1354 20.8125ZM28.1354 14.6458H16.5729C15.9347 14.6458 15.4167 14.1278 15.4167 13.4895C15.4167 12.8513 15.9347 12.3333 16.5729 12.3333H28.1354C28.7737 12.3333 29.2917 12.8513 29.2917 13.4895C29.2917 14.1278 28.7737 14.6458 28.1354 14.6458Z" fill="#44A64B"/>
</g>
<defs>
<clipPath id="clip0">
<rect width="37" height="37" fill="white"/>
</clipPath>
</defs>
</svg>
